<?xml version="1.0" encoding="utf-8" standalone="no"?>
<!DOCTYPE svg PUBLIC "-//W3C//DTD SVG 1.1//EN"
  "http://www.w3.org/Graphics/SVG/1.1/DTD/svg11.dtd">
<svg xmlns:xlink="http://www.w3.org/1999/xlink" width="432pt" height="360pt" viewBox="0 0 432 360" xmlns="http://www.w3.org/2000/svg" version="1.1">
 <metadata>
  <rdf:RDF xmlns:dc="http://purl.org/dc/elements/1.1/" xmlns:cc="http://creativecommons.org/ns#" xmlns:rdf="http://www.w3.org/1999/02/22-rdf-syntax-ns#">
   <cc:Work>
    <dc:type rdf:resource="http://purl.org/dc/dcmitype/StillImage"/>
    <dc:date>2024-10-29T15:05:10.770809</dc:date>
    <dc:format>image/svg+xml</dc:format>
    <dc:creator>
     <cc:Agent>
      <dc:title>Matplotlib v3.8.4, https://matplotlib.org/</dc:title>
     </cc:Agent>
    </dc:creator>
   </cc:Work>
  </rdf:RDF>
 </metadata>
 <defs>
  <style type="text/css">*{stroke-linejoin: round; stroke-linecap: butt}</style>
 </defs>
 <g id="figure_1">
  <g id="patch_1">
   <path d="M 0 360 
L 432 360 
L 432 0 
L 0 0 
z
" style="fill: #ffffff"/>
  </g>
  <g id="axes_1">
   <g id="patch_2">
    <path d="M 54.2 318.04 
L 377.8 318.04 
L 377.8 25.44 
L 54.2 25.44 
z
" style="fill: #ffffff"/>
   </g>
   <g id="PolyCollection_1">
    <defs>
     <path id="mc6d94866bf" d="M 59.684746 -147.372244 
L 59.684746 -211.537397 
L 65.169492 -176.398851 
L 70.654237 -170.072302 
L 76.138983 -172.645438 
L 81.623729 -164.422116 
L 87.108475 -170.521153 
L 92.59322 -162.956357 
L 98.077966 -167.068934 
L 103.562712 -148.255299 
L 109.047458 -154.868986 
L 114.532203 -155.843607 
L 120.016949 -149.648624 
L 125.501695 -162.910801 
L 130.986441 -165.766629 
L 136.471186 -160.588181 
L 141.955932 -172.017769 
L 147.440678 -159.309982 
L 152.925424 -153.646259 
L 158.410169 -147.009396 
L 163.894915 -127.771427 
L 169.379661 -123.453738 
L 174.864407 -121.377713 
L 180.349153 -122.412592 
L 185.833898 -123.798343 
L 191.318644 -108.800052 
L 196.80339 -109.909812 
L 202.288136 -112.497286 
L 207.772881 -101.151795 
L 213.257627 -99.270896 
L 218.742373 -100.188588 
L 224.227119 -103.246515 
L 229.711864 -185.533363 
L 235.19661 -150.911696 
L 240.681356 -155.015941 
L 246.166102 -171.33896 
L 251.650847 -181.412644 
L 257.135593 -195.38859 
L 262.620339 -205.590382 
L 268.105085 -202.521701 
L 273.589831 -212.542296 
L 279.074576 -214.611829 
L 284.559322 -179.926593 
L 290.044068 -197.121813 
L 295.528814 -188.988233 
L 301.013559 -164.737866 
L 306.498305 -170.578223 
L 311.983051 -172.707348 
L 317.467797 -163.174147 
L 322.952542 -214.82424 
L 328.437288 -181.411497 
L 333.922034 -170.252078 
L 339.40678 -158.860616 
L 344.891525 -155.728626 
L 350.376271 -151.081078 
L 355.861017 -165.077858 
L 361.345763 -169.893823 
L 366.830508 -157.96772 
L 372.315254 -164.128018 
L 377.8 -141.199625 
L 377.8 -124.738856 
L 377.8 -124.738856 
L 372.315254 -139.232776 
L 366.830508 -139.010291 
L 361.345763 -149.209788 
L 355.861017 -149.340075 
L 350.376271 -140.725594 
L 344.891525 -145.200204 
L 339.40678 -147.064118 
L 333.922034 -157.225081 
L 328.437288 -163.644236 
L 322.952542 -162.076457 
L 317.467797 -152.121473 
L 311.983051 -157.536612 
L 306.498305 -155.564645 
L 301.013559 -149.188096 
L 295.528814 -168.982233 
L 290.044068 -174.216909 
L 284.559322 -157.522239 
L 279.074576 -164.422258 
L 273.589831 -155.936755 
L 268.105085 -145.80442 
L 262.620339 -145.416146 
L 257.135593 -135.478887 
L 251.650847 -127.783716 
L 246.166102 -118.789059 
L 240.681356 -113.561178 
L 235.19661 -111.706924 
L 229.711864 -101.484588 
L 224.227119 -100.291474 
L 218.742373 -97.022524 
L 213.257627 -96.797193 
L 207.772881 -98.864758 
L 202.288136 -108.157973 
L 196.80339 -105.477041 
L 191.318644 -103.748816 
L 185.833898 -112.522254 
L 180.349153 -110.739386 
L 174.864407 -112.257304 
L 169.379661 -113.650506 
L 163.894915 -117.173388 
L 158.410169 -132.174081 
L 152.925424 -137.842971 
L 147.440678 -142.987276 
L 141.955932 -153.74593 
L 136.471186 -144.933877 
L 130.986441 -147.517692 
L 125.501695 -142.708012 
L 120.016949 -137.836217 
L 114.532203 -143.558784 
L 109.047458 -144.49379 
L 103.562712 -136.654592 
L 98.077966 -150.813885 
L 92.59322 -146.472756 
L 87.108475 -150.353574 
L 81.623729 -144.15439 
L 76.138983 -146.681443 
L 70.654237 -145.59465 
L 65.169492 -149.235703 
L 59.684746 -147.372244 
z
" style="stroke: #ff7f0e; stroke-opacity: 0.3"/>
    </defs>
    <g clip-path="url(#p05efefed7b)">
     <use xlink:href="#mc6d94866bf" x="0" y="360" style="fill: #ff7f0e; fill-opacity: 0.3; stroke: #ff7f0e; stroke-opacity: 0.3"/>
    </g>
   </g>
   <g id="matplotlib.axis_1">
    <g id="xtick_1">
     <g id="line2d_1">
      <defs>
       <path id="m7ee74950ca" d="M 0 0 
L 0 3.5 
" style="stroke: #000000; stroke-width: 0.8"/>
      </defs>
      <g>
       <use xlink:href="#m7ee74950ca" x="54.2" y="318.04" style="stroke: #000000; stroke-width: 0.8"/>
      </g>
     </g>
     <g id="text_1">
      <!-- 0.0 -->
      <g transform="translate(46.248438 332.638438) scale(0.1 -0.1)">
       <defs>
        <path id="DejaVuSans-30" d="M 2034 4250 
Q 1547 4250 1301 3770 
Q 1056 3291 1056 2328 
Q 1056 1369 1301 889 
Q 1547 409 2034 409 
Q 2525 409 2770 889 
Q 3016 1369 3016 2328 
Q 3016 3291 2770 3770 
Q 2525 4250 2034 4250 
z
M 2034 4750 
Q 2819 4750 3233 4129 
Q 3647 3509 3647 2328 
Q 3647 1150 3233 529 
Q 2819 -91 2034 -91 
Q 1250 -91 836 529 
Q 422 1150 422 2328 
Q 422 3509 836 4129 
Q 1250 4750 2034 4750 
z
" transform="scale(0.015625)"/>
        <path id="DejaVuSans-2e" d="M 684 794 
L 1344 794 
L 1344 0 
L 684 0 
L 684 794 
z
" transform="scale(0.015625)"/>
       </defs>
       <use xlink:href="#DejaVuSans-30"/>
       <use xlink:href="#DejaVuSans-2e" x="63.623047"/>
       <use xlink:href="#DejaVuSans-30" x="95.410156"/>
      </g>
     </g>
    </g>
    <g id="xtick_2">
     <g id="line2d_2">
      <g>
       <use xlink:href="#m7ee74950ca" x="94.65" y="318.04" style="stroke: #000000; stroke-width: 0.8"/>
      </g>
     </g>
     <g id="text_2">
      <!-- 2.5 -->
      <g transform="translate(86.698438 332.638438) scale(0.1 -0.1)">
       <defs>
        <path id="DejaVuSans-32" d="M 1228 531 
L 3431 531 
L 3431 0 
L 469 0 
L 469 531 
Q 828 903 1448 1529 
Q 2069 2156 2228 2338 
Q 2531 2678 2651 2914 
Q 2772 3150 2772 3378 
Q 2772 3750 2511 3984 
Q 2250 4219 1831 4219 
Q 1534 4219 1204 4116 
Q 875 4013 500 3803 
L 500 4441 
Q 881 4594 1212 4672 
Q 1544 4750 1819 4750 
Q 2544 4750 2975 4387 
Q 3406 4025 3406 3419 
Q 3406 3131 3298 2873 
Q 3191 2616 2906 2266 
Q 2828 2175 2409 1742 
Q 1991 1309 1228 531 
z
" transform="scale(0.015625)"/>
        <path id="DejaVuSans-35" d="M 691 4666 
L 3169 4666 
L 3169 4134 
L 1269 4134 
L 1269 2991 
Q 1406 3038 1543 3061 
Q 1681 3084 1819 3084 
Q 2600 3084 3056 2656 
Q 3513 2228 3513 1497 
Q 3513 744 3044 326 
Q 2575 -91 1722 -91 
Q 1428 -91 1123 -41 
Q 819 9 494 109 
L 494 744 
Q 775 591 1075 516 
Q 1375 441 1709 441 
Q 2250 441 2565 725 
Q 2881 1009 2881 1497 
Q 2881 1984 2565 2268 
Q 2250 2553 1709 2553 
Q 1456 2553 1204 2497 
Q 953 2441 691 2322 
L 691 4666 
z
" transform="scale(0.015625)"/>
       </defs>
       <use xlink:href="#DejaVuSans-32"/>
       <use xlink:href="#DejaVuSans-2e" x="63.623047"/>
       <use xlink:href="#DejaVuSans-35" x="95.410156"/>
      </g>
     </g>
    </g>
    <g id="xtick_3">
     <g id="line2d_3">
      <g>
       <use xlink:href="#m7ee74950ca" x="135.1" y="318.04" style="stroke: #000000; stroke-width: 0.8"/>
      </g>
     </g>
     <g id="text_3">
      <!-- 5.0 -->
      <g transform="translate(127.148438 332.638438) scale(0.1 -0.1)">
       <use xlink:href="#DejaVuSans-35"/>
       <use xlink:href="#DejaVuSans-2e" x="63.623047"/>
       <use xlink:href="#DejaVuSans-30" x="95.410156"/>
      </g>
     </g>
    </g>
    <g id="xtick_4">
     <g id="line2d_4">
      <g>
       <use xlink:href="#m7ee74950ca" x="175.55" y="318.04" style="stroke: #000000; stroke-width: 0.8"/>
      </g>
     </g>
     <g id="text_4">
      <!-- 7.5 -->
      <g transform="translate(167.598438 332.638438) scale(0.1 -0.1)">
       <defs>
        <path id="DejaVuSans-37" d="M 525 4666 
L 3525 4666 
L 3525 4397 
L 1831 0 
L 1172 0 
L 2766 4134 
L 525 4134 
L 525 4666 
z
" transform="scale(0.015625)"/>
       </defs>
       <use xlink:href="#DejaVuSans-37"/>
       <use xlink:href="#DejaVuSans-2e" x="63.623047"/>
       <use xlink:href="#DejaVuSans-35" x="95.410156"/>
      </g>
     </g>
    </g>
    <g id="xtick_5">
     <g id="line2d_5">
      <g>
       <use xlink:href="#m7ee74950ca" x="216" y="318.04" style="stroke: #000000; stroke-width: 0.8"/>
      </g>
     </g>
     <g id="text_5">
      <!-- 10.0 -->
      <g transform="translate(204.867188 332.638438) scale(0.1 -0.1)">
       <defs>
        <path id="DejaVuSans-31" d="M 794 531 
L 1825 531 
L 1825 4091 
L 703 3866 
L 703 4441 
L 1819 4666 
L 2450 4666 
L 2450 531 
L 3481 531 
L 3481 0 
L 794 0 
L 794 531 
z
" transform="scale(0.015625)"/>
       </defs>
       <use xlink:href="#DejaVuSans-31"/>
       <use xlink:href="#DejaVuSans-30" x="63.623047"/>
       <use xlink:href="#DejaVuSans-2e" x="127.246094"/>
       <use xlink:href="#DejaVuSans-30" x="159.033203"/>
      </g>
     </g>
    </g>
    <g id="xtick_6">
     <g id="line2d_6">
      <g>
       <use xlink:href="#m7ee74950ca" x="256.45" y="318.04" style="stroke: #000000; stroke-width: 0.8"/>
      </g>
     </g>
     <g id="text_6">
      <!-- 12.5 -->
      <g transform="translate(245.317188 332.638438) scale(0.1 -0.1)">
       <use xlink:href="#DejaVuSans-31"/>
       <use xlink:href="#DejaVuSans-32" x="63.623047"/>
       <use xlink:href="#DejaVuSans-2e" x="127.246094"/>
       <use xlink:href="#DejaVuSans-35" x="159.033203"/>
      </g>
     </g>
    </g>
    <g id="xtick_7">
     <g id="line2d_7">
      <g>
       <use xlink:href="#m7ee74950ca" x="296.9" y="318.04" style="stroke: #000000; stroke-width: 0.8"/>
      </g>
     </g>
     <g id="text_7">
      <!-- 15.0 -->
      <g transform="translate(285.767188 332.638438) scale(0.1 -0.1)">
       <use xlink:href="#DejaVuSans-31"/>
       <use xlink:href="#DejaVuSans-35" x="63.623047"/>
       <use xlink:href="#DejaVuSans-2e" x="127.246094"/>
       <use xlink:href="#DejaVuSans-30" x="159.033203"/>
      </g>
     </g>
    </g>
    <g id="xtick_8">
     <g id="line2d_8">
      <g>
       <use xlink:href="#m7ee74950ca" x="337.35" y="318.04" style="stroke: #000000; stroke-width: 0.8"/>
      </g>
     </g>
     <g id="text_8">
      <!-- 17.5 -->
      <g transform="translate(326.217188 332.638438) scale(0.1 -0.1)">
       <use xlink:href="#DejaVuSans-31"/>
       <use xlink:href="#DejaVuSans-37" x="63.623047"/>
       <use xlink:href="#DejaVuSans-2e" x="127.246094"/>
       <use xlink:href="#DejaVuSans-35" x="159.033203"/>
      </g>
     </g>
    </g>
    <g id="xtick_9">
     <g id="line2d_9">
      <g>
       <use xlink:href="#m7ee74950ca" x="377.8" y="318.04" style="stroke: #000000; stroke-width: 0.8"/>
      </g>
     </g>
     <g id="text_9">
      <!-- 20.0 -->
      <g transform="translate(366.667188 332.638438) scale(0.1 -0.1)">
       <use xlink:href="#DejaVuSans-32"/>
       <use xlink:href="#DejaVuSans-30" x="63.623047"/>
       <use xlink:href="#DejaVuSans-2e" x="127.246094"/>
       <use xlink:href="#DejaVuSans-30" x="159.033203"/>
      </g>
     </g>
    </g>
    <g id="text_10">
     <!-- Time After Bipolar Spindle Formation (min) -->
     <g transform="translate(109.146094 346.316563) scale(0.1 -0.1)">
      <defs>
       <path id="DejaVuSans-54" d="M -19 4666 
L 3928 4666 
L 3928 4134 
L 2272 4134 
L 2272 0 
L 1638 0 
L 1638 4134 
L -19 4134 
L -19 4666 
z
" transform="scale(0.015625)"/>
       <path id="DejaVuSans-69" d="M 603 3500 
L 1178 3500 
L 1178 0 
L 603 0 
L 603 3500 
z
M 603 4863 
L 1178 4863 
L 1178 4134 
L 603 4134 
L 603 4863 
z
" transform="scale(0.015625)"/>
       <path id="DejaVuSans-6d" d="M 3328 2828 
Q 3544 3216 3844 3400 
Q 4144 3584 4550 3584 
Q 5097 3584 5394 3201 
Q 5691 2819 5691 2113 
L 5691 0 
L 5113 0 
L 5113 2094 
Q 5113 2597 4934 2840 
Q 4756 3084 4391 3084 
Q 3944 3084 3684 2787 
Q 3425 2491 3425 1978 
L 3425 0 
L 2847 0 
L 2847 2094 
Q 2847 2600 2669 2842 
Q 2491 3084 2119 3084 
Q 1678 3084 1418 2786 
Q 1159 2488 1159 1978 
L 1159 0 
L 581 0 
L 581 3500 
L 1159 3500 
L 1159 2956 
Q 1356 3278 1631 3431 
Q 1906 3584 2284 3584 
Q 2666 3584 2933 3390 
Q 3200 3197 3328 2828 
z
" transform="scale(0.015625)"/>
       <path id="DejaVuSans-65" d="M 3597 1894 
L 3597 1613 
L 953 1613 
Q 991 1019 1311 708 
Q 1631 397 2203 397 
Q 2534 397 2845 478 
Q 3156 559 3463 722 
L 3463 178 
Q 3153 47 2828 -22 
Q 2503 -91 2169 -91 
Q 1331 -91 842 396 
Q 353 884 353 1716 
Q 353 2575 817 3079 
Q 1281 3584 2069 3584 
Q 2775 3584 3186 3129 
Q 3597 2675 3597 1894 
z
M 3022 2063 
Q 3016 2534 2758 2815 
Q 2500 3097 2075 3097 
Q 1594 3097 1305 2825 
Q 1016 2553 972 2059 
L 3022 2063 
z
" transform="scale(0.015625)"/>
       <path id="DejaVuSans-20" transform="scale(0.015625)"/>
       <path id="DejaVuSans-41" d="M 2188 4044 
L 1331 1722 
L 3047 1722 
L 2188 4044 
z
M 1831 4666 
L 2547 4666 
L 4325 0 
L 3669 0 
L 3244 1197 
L 1141 1197 
L 716 0 
L 50 0 
L 1831 4666 
z
" transform="scale(0.015625)"/>
       <path id="DejaVuSans-66" d="M 2375 4863 
L 2375 4384 
L 1825 4384 
Q 1516 4384 1395 4259 
Q 1275 4134 1275 3809 
L 1275 3500 
L 2222 3500 
L 2222 3053 
L 1275 3053 
L 1275 0 
L 697 0 
L 697 3053 
L 147 3053 
L 147 3500 
L 697 3500 
L 697 3744 
Q 697 4328 969 4595 
Q 1241 4863 1831 4863 
L 2375 4863 
z
" transform="scale(0.015625)"/>
       <path id="DejaVuSans-74" d="M 1172 4494 
L 1172 3500 
L 2356 3500 
L 2356 3053 
L 1172 3053 
L 1172 1153 
Q 1172 725 1289 603 
Q 1406 481 1766 481 
L 2356 481 
L 2356 0 
L 1766 0 
Q 1100 0 847 248 
Q 594 497 594 1153 
L 594 3053 
L 172 3053 
L 172 3500 
L 594 3500 
L 594 4494 
L 1172 4494 
z
" transform="scale(0.015625)"/>
       <path id="DejaVuSans-72" d="M 2631 2963 
Q 2534 3019 2420 3045 
Q 2306 3072 2169 3072 
Q 1681 3072 1420 2755 
Q 1159 2438 1159 1844 
L 1159 0 
L 581 0 
L 581 3500 
L 1159 3500 
L 1159 2956 
Q 1341 3275 1631 3429 
Q 1922 3584 2338 3584 
Q 2397 3584 2469 3576 
Q 2541 3569 2628 3553 
L 2631 2963 
z
" transform="scale(0.015625)"/>
       <path id="DejaVuSans-42" d="M 1259 2228 
L 1259 519 
L 2272 519 
Q 2781 519 3026 730 
Q 3272 941 3272 1375 
Q 3272 1813 3026 2020 
Q 2781 2228 2272 2228 
L 1259 2228 
z
M 1259 4147 
L 1259 2741 
L 2194 2741 
Q 2656 2741 2882 2914 
Q 3109 3088 3109 3444 
Q 3109 3797 2882 3972 
Q 2656 4147 2194 4147 
L 1259 4147 
z
M 628 4666 
L 2241 4666 
Q 2963 4666 3353 4366 
Q 3744 4066 3744 3513 
Q 3744 3084 3544 2831 
Q 3344 2578 2956 2516 
Q 3422 2416 3680 2098 
Q 3938 1781 3938 1306 
Q 3938 681 3513 340 
Q 3088 0 2303 0 
L 628 0 
L 628 4666 
z
" transform="scale(0.015625)"/>
       <path id="DejaVuSans-70" d="M 1159 525 
L 1159 -1331 
L 581 -1331 
L 581 3500 
L 1159 3500 
L 1159 2969 
Q 1341 3281 1617 3432 
Q 1894 3584 2278 3584 
Q 2916 3584 3314 3078 
Q 3713 2572 3713 1747 
Q 3713 922 3314 415 
Q 2916 -91 2278 -91 
Q 1894 -91 1617 61 
Q 1341 213 1159 525 
z
M 3116 1747 
Q 3116 2381 2855 2742 
Q 2594 3103 2138 3103 
Q 1681 3103 1420 2742 
Q 1159 2381 1159 1747 
Q 1159 1113 1420 752 
Q 1681 391 2138 391 
Q 2594 391 2855 752 
Q 3116 1113 3116 1747 
z
" transform="scale(0.015625)"/>
       <path id="DejaVuSans-6f" d="M 1959 3097 
Q 1497 3097 1228 2736 
Q 959 2375 959 1747 
Q 959 1119 1226 758 
Q 1494 397 1959 397 
Q 2419 397 2687 759 
Q 2956 1122 2956 1747 
Q 2956 2369 2687 2733 
Q 2419 3097 1959 3097 
z
M 1959 3584 
Q 2709 3584 3137 3096 
Q 3566 2609 3566 1747 
Q 3566 888 3137 398 
Q 2709 -91 1959 -91 
Q 1206 -91 779 398 
Q 353 888 353 1747 
Q 353 2609 779 3096 
Q 1206 3584 1959 3584 
z
" transform="scale(0.015625)"/>
       <path id="DejaVuSans-6c" d="M 603 4863 
L 1178 4863 
L 1178 0 
L 603 0 
L 603 4863 
z
" transform="scale(0.015625)"/>
       <path id="DejaVuSans-61" d="M 2194 1759 
Q 1497 1759 1228 1600 
Q 959 1441 959 1056 
Q 959 750 1161 570 
Q 1363 391 1709 391 
Q 2188 391 2477 730 
Q 2766 1069 2766 1631 
L 2766 1759 
L 2194 1759 
z
M 3341 1997 
L 3341 0 
L 2766 0 
L 2766 531 
Q 2569 213 2275 61 
Q 1981 -91 1556 -91 
Q 1019 -91 701 211 
Q 384 513 384 1019 
Q 384 1609 779 1909 
Q 1175 2209 1959 2209 
L 2766 2209 
L 2766 2266 
Q 2766 2663 2505 2880 
Q 2244 3097 1772 3097 
Q 1472 3097 1187 3025 
Q 903 2953 641 2809 
L 641 3341 
Q 956 3463 1253 3523 
Q 1550 3584 1831 3584 
Q 2591 3584 2966 3190 
Q 3341 2797 3341 1997 
z
" transform="scale(0.015625)"/>
       <path id="DejaVuSans-53" d="M 3425 4513 
L 3425 3897 
Q 3066 4069 2747 4153 
Q 2428 4238 2131 4238 
Q 1616 4238 1336 4038 
Q 1056 3838 1056 3469 
Q 1056 3159 1242 3001 
Q 1428 2844 1947 2747 
L 2328 2669 
Q 3034 2534 3370 2195 
Q 3706 1856 3706 1288 
Q 3706 609 3251 259 
Q 2797 -91 1919 -91 
Q 1588 -91 1214 -16 
Q 841 59 441 206 
L 441 856 
Q 825 641 1194 531 
Q 1563 422 1919 422 
Q 2459 422 2753 634 
Q 3047 847 3047 1241 
Q 3047 1584 2836 1778 
Q 2625 1972 2144 2069 
L 1759 2144 
Q 1053 2284 737 2584 
Q 422 2884 422 3419 
Q 422 4038 858 4394 
Q 1294 4750 2059 4750 
Q 2388 4750 2728 4690 
Q 3069 4631 3425 4513 
z
" transform="scale(0.015625)"/>
       <path id="DejaVuSans-6e" d="M 3513 2113 
L 3513 0 
L 2938 0 
L 2938 2094 
Q 2938 2591 2744 2837 
Q 2550 3084 2163 3084 
Q 1697 3084 1428 2787 
Q 1159 2491 1159 1978 
L 1159 0 
L 581 0 
L 581 3500 
L 1159 3500 
L 1159 2956 
Q 1366 3272 1645 3428 
Q 1925 3584 2291 3584 
Q 2894 3584 3203 3211 
Q 3513 2838 3513 2113 
z
" transform="scale(0.015625)"/>
       <path id="DejaVuSans-64" d="M 2906 2969 
L 2906 4863 
L 3481 4863 
L 3481 0 
L 2906 0 
L 2906 525 
Q 2725 213 2448 61 
Q 2172 -91 1784 -91 
Q 1150 -91 751 415 
Q 353 922 353 1747 
Q 353 2572 751 3078 
Q 1150 3584 1784 3584 
Q 2172 3584 2448 3432 
Q 2725 3281 2906 2969 
z
M 947 1747 
Q 947 1113 1208 752 
Q 1469 391 1925 391 
Q 2381 391 2643 752 
Q 2906 1113 2906 1747 
Q 2906 2381 2643 2742 
Q 2381 3103 1925 3103 
Q 1469 3103 1208 2742 
Q 947 2381 947 1747 
z
" transform="scale(0.015625)"/>
       <path id="DejaVuSans-46" d="M 628 4666 
L 3309 4666 
L 3309 4134 
L 1259 4134 
L 1259 2759 
L 3109 2759 
L 3109 2228 
L 1259 2228 
L 1259 0 
L 628 0 
L 628 4666 
z
" transform="scale(0.015625)"/>
       <path id="DejaVuSans-28" d="M 1984 4856 
Q 1566 4138 1362 3434 
Q 1159 2731 1159 2009 
Q 1159 1288 1364 580 
Q 1569 -128 1984 -844 
L 1484 -844 
Q 1016 -109 783 600 
Q 550 1309 550 2009 
Q 550 2706 781 3412 
Q 1013 4119 1484 4856 
L 1984 4856 
z
" transform="scale(0.015625)"/>
       <path id="DejaVuSans-29" d="M 513 4856 
L 1013 4856 
Q 1481 4119 1714 3412 
Q 1947 2706 1947 2009 
Q 1947 1309 1714 600 
Q 1481 -109 1013 -844 
L 513 -844 
Q 928 -128 1133 580 
Q 1338 1288 1338 2009 
Q 1338 2731 1133 3434 
Q 928 4138 513 4856 
z
" transform="scale(0.015625)"/>
      </defs>
      <use xlink:href="#DejaVuSans-54"/>
      <use xlink:href="#DejaVuSans-69" x="57.958984"/>
      <use xlink:href="#DejaVuSans-6d" x="85.742188"/>
      <use xlink:href="#DejaVuSans-65" x="183.154297"/>
      <use xlink:href="#DejaVuSans-20" x="244.677734"/>
      <use xlink:href="#DejaVuSans-41" x="276.464844"/>
      <use xlink:href="#DejaVuSans-66" x="341.248047"/>
      <use xlink:href="#DejaVuSans-74" x="374.703125"/>
      <use xlink:href="#DejaVuSans-65" x="413.912109"/>
      <use xlink:href="#DejaVuSans-72" x="475.435547"/>
      <use xlink:href="#DejaVuSans-20" x="516.548828"/>
      <use xlink:href="#DejaVuSans-42" x="548.335938"/>
      <use xlink:href="#DejaVuSans-69" x="616.939453"/>
      <use xlink:href="#DejaVuSans-70" x="644.722656"/>
      <use xlink:href="#DejaVuSans-6f" x="708.199219"/>
      <use xlink:href="#DejaVuSans-6c" x="769.380859"/>
      <use xlink:href="#DejaVuSans-61" x="797.164062"/>
      <use xlink:href="#DejaVuSans-72" x="858.443359"/>
      <use xlink:href="#DejaVuSans-20" x="899.556641"/>
      <use xlink:href="#DejaVuSans-53" x="931.34375"/>
      <use xlink:href="#DejaVuSans-70" x="994.820312"/>
      <use xlink:href="#DejaVuSans-69" x="1058.296875"/>
      <use xlink:href="#DejaVuSans-6e" x="1086.080078"/>
      <use xlink:href="#DejaVuSans-64" x="1149.458984"/>
      <use xlink:href="#DejaVuSans-6c" x="1212.935547"/>
      <use xlink:href="#DejaVuSans-65" x="1240.71875"/>
      <use xlink:href="#DejaVuSans-20" x="1302.242188"/>
      <use xlink:href="#DejaVuSans-46" x="1334.029297"/>
      <use xlink:href="#DejaVuSans-6f" x="1387.923828"/>
      <use xlink:href="#DejaVuSans-72" x="1449.105469"/>
      <use xlink:href="#DejaVuSans-6d" x="1488.46875"/>
      <use xlink:href="#DejaVuSans-61" x="1585.880859"/>
      <use xlink:href="#DejaVuSans-74" x="1647.160156"/>
      <use xlink:href="#DejaVuSans-69" x="1686.369141"/>
      <use xlink:href="#DejaVuSans-6f" x="1714.152344"/>
      <use xlink:href="#DejaVuSans-6e" x="1775.333984"/>
      <use xlink:href="#DejaVuSans-20" x="1838.712891"/>
      <use xlink:href="#DejaVuSans-28" x="1870.5"/>
      <use xlink:href="#DejaVuSans-6d" x="1909.513672"/>
      <use xlink:href="#DejaVuSans-69" x="2006.925781"/>
      <use xlink:href="#DejaVuSans-6e" x="2034.708984"/>
      <use xlink:href="#DejaVuSans-29" x="2098.087891"/>
     </g>
    </g>
   </g>
   <g id="matplotlib.axis_2">
    <g id="ytick_1">
     <g id="line2d_10">
      <defs>
       <path id="mdef7374b3b" d="M 0 0 
L -3.5 0 
" style="stroke: #000000; stroke-width: 0.8"/>
      </defs>
      <g>
       <use xlink:href="#mdef7374b3b" x="54.2" y="318.04" style="stroke: #000000; stroke-width: 0.8"/>
      </g>
     </g>
     <g id="text_11">
      <!-- 0.00 -->
      <g transform="translate(24.934375 321.839219) scale(0.1 -0.1)">
       <use xlink:href="#DejaVuSans-30"/>
       <use xlink:href="#DejaVuSans-2e" x="63.623047"/>
       <use xlink:href="#DejaVuSans-30" x="95.410156"/>
       <use xlink:href="#DejaVuSans-30" x="159.033203"/>
      </g>
     </g>
    </g>
    <g id="ytick_2">
     <g id="line2d_11">
      <g>
       <use xlink:href="#mdef7374b3b" x="54.2" y="279.026667" style="stroke: #000000; stroke-width: 0.8"/>
      </g>
     </g>
     <g id="text_12">
      <!-- 0.02 -->
      <g transform="translate(24.934375 282.825885) scale(0.1 -0.1)">
       <use xlink:href="#DejaVuSans-30"/>
       <use xlink:href="#DejaVuSans-2e" x="63.623047"/>
       <use xlink:href="#DejaVuSans-30" x="95.410156"/>
       <use xlink:href="#DejaVuSans-32" x="159.033203"/>
      </g>
     </g>
    </g>
    <g id="ytick_3">
     <g id="line2d_12">
      <g>
       <use xlink:href="#mdef7374b3b" x="54.2" y="240.013333" style="stroke: #000000; stroke-width: 0.8"/>
      </g>
     </g>
     <g id="text_13">
      <!-- 0.04 -->
      <g transform="translate(24.934375 243.812552) scale(0.1 -0.1)">
       <defs>
        <path id="DejaVuSans-34" d="M 2419 4116 
L 825 1625 
L 2419 1625 
L 2419 4116 
z
M 2253 4666 
L 3047 4666 
L 3047 1625 
L 3713 1625 
L 3713 1100 
L 3047 1100 
L 3047 0 
L 2419 0 
L 2419 1100 
L 313 1100 
L 313 1709 
L 2253 4666 
z
" transform="scale(0.015625)"/>
       </defs>
       <use xlink:href="#DejaVuSans-30"/>
       <use xlink:href="#DejaVuSans-2e" x="63.623047"/>
       <use xlink:href="#DejaVuSans-30" x="95.410156"/>
       <use xlink:href="#DejaVuSans-34" x="159.033203"/>
      </g>
     </g>
    </g>
    <g id="ytick_4">
     <g id="line2d_13">
      <g>
       <use xlink:href="#mdef7374b3b" x="54.2" y="201" style="stroke: #000000; stroke-width: 0.8"/>
      </g>
     </g>
     <g id="text_14">
      <!-- 0.06 -->
      <g transform="translate(24.934375 204.799219) scale(0.1 -0.1)">
       <defs>
        <path id="DejaVuSans-36" d="M 2113 2584 
Q 1688 2584 1439 2293 
Q 1191 2003 1191 1497 
Q 1191 994 1439 701 
Q 1688 409 2113 409 
Q 2538 409 2786 701 
Q 3034 994 3034 1497 
Q 3034 2003 2786 2293 
Q 2538 2584 2113 2584 
z
M 3366 4563 
L 3366 3988 
Q 3128 4100 2886 4159 
Q 2644 4219 2406 4219 
Q 1781 4219 1451 3797 
Q 1122 3375 1075 2522 
Q 1259 2794 1537 2939 
Q 1816 3084 2150 3084 
Q 2853 3084 3261 2657 
Q 3669 2231 3669 1497 
Q 3669 778 3244 343 
Q 2819 -91 2113 -91 
Q 1303 -91 875 529 
Q 447 1150 447 2328 
Q 447 3434 972 4092 
Q 1497 4750 2381 4750 
Q 2619 4750 2861 4703 
Q 3103 4656 3366 4563 
z
" transform="scale(0.015625)"/>
       </defs>
       <use xlink:href="#DejaVuSans-30"/>
       <use xlink:href="#DejaVuSans-2e" x="63.623047"/>
       <use xlink:href="#DejaVuSans-30" x="95.410156"/>
       <use xlink:href="#DejaVuSans-36" x="159.033203"/>
      </g>
     </g>
    </g>
    <g id="ytick_5">
     <g id="line2d_14">
      <g>
       <use xlink:href="#mdef7374b3b" x="54.2" y="161.986667" style="stroke: #000000; stroke-width: 0.8"/>
      </g>
     </g>
     <g id="text_15">
      <!-- 0.08 -->
      <g transform="translate(24.934375 165.785885) scale(0.1 -0.1)">
       <defs>
        <path id="DejaVuSans-38" d="M 2034 2216 
Q 1584 2216 1326 1975 
Q 1069 1734 1069 1313 
Q 1069 891 1326 650 
Q 1584 409 2034 409 
Q 2484 409 2743 651 
Q 3003 894 3003 1313 
Q 3003 1734 2745 1975 
Q 2488 2216 2034 2216 
z
M 1403 2484 
Q 997 2584 770 2862 
Q 544 3141 544 3541 
Q 544 4100 942 4425 
Q 1341 4750 2034 4750 
Q 2731 4750 3128 4425 
Q 3525 4100 3525 3541 
Q 3525 3141 3298 2862 
Q 3072 2584 2669 2484 
Q 3125 2378 3379 2068 
Q 3634 1759 3634 1313 
Q 3634 634 3220 271 
Q 2806 -91 2034 -91 
Q 1263 -91 848 271 
Q 434 634 434 1313 
Q 434 1759 690 2068 
Q 947 2378 1403 2484 
z
M 1172 3481 
Q 1172 3119 1398 2916 
Q 1625 2713 2034 2713 
Q 2441 2713 2670 2916 
Q 2900 3119 2900 3481 
Q 2900 3844 2670 4047 
Q 2441 4250 2034 4250 
Q 1625 4250 1398 4047 
Q 1172 3844 1172 3481 
z
" transform="scale(0.015625)"/>
       </defs>
       <use xlink:href="#DejaVuSans-30"/>
       <use xlink:href="#DejaVuSans-2e" x="63.623047"/>
       <use xlink:href="#DejaVuSans-30" x="95.410156"/>
       <use xlink:href="#DejaVuSans-38" x="159.033203"/>
      </g>
     </g>
    </g>
    <g id="ytick_6">
     <g id="line2d_15">
      <g>
       <use xlink:href="#mdef7374b3b" x="54.2" y="122.973333" style="stroke: #000000; stroke-width: 0.8"/>
      </g>
     </g>
     <g id="text_16">
      <!-- 0.10 -->
      <g transform="translate(24.934375 126.772552) scale(0.1 -0.1)">
       <use xlink:href="#DejaVuSans-30"/>
       <use xlink:href="#DejaVuSans-2e" x="63.623047"/>
       <use xlink:href="#DejaVuSans-31" x="95.410156"/>
       <use xlink:href="#DejaVuSans-30" x="159.033203"/>
      </g>
     </g>
    </g>
    <g id="ytick_7">
     <g id="line2d_16">
      <g>
       <use xlink:href="#mdef7374b3b" x="54.2" y="83.96" style="stroke: #000000; stroke-width: 0.8"/>
      </g>
     </g>
     <g id="text_17">
      <!-- 0.12 -->
      <g transform="translate(24.934375 87.759219) scale(0.1 -0.1)">
       <use xlink:href="#DejaVuSans-30"/>
       <use xlink:href="#DejaVuSans-2e" x="63.623047"/>
       <use xlink:href="#DejaVuSans-31" x="95.410156"/>
       <use xlink:href="#DejaVuSans-32" x="159.033203"/>
      </g>
     </g>
    </g>
    <g id="ytick_8">
     <g id="line2d_17">
      <g>
       <use xlink:href="#mdef7374b3b" x="54.2" y="44.946667" style="stroke: #000000; stroke-width: 0.8"/>
      </g>
     </g>
     <g id="text_18">
      <!-- 0.14 -->
      <g transform="translate(24.934375 48.745885) scale(0.1 -0.1)">
       <use xlink:href="#DejaVuSans-30"/>
       <use xlink:href="#DejaVuSans-2e" x="63.623047"/>
       <use xlink:href="#DejaVuSans-31" x="95.410156"/>
       <use xlink:href="#DejaVuSans-34" x="159.033203"/>
      </g>
     </g>
    </g>
    <g id="text_19">
     <!-- Spindle Length Dispersion -->
     <g transform="translate(18.854687 237.082969) rotate(-90) scale(0.1 -0.1)">
      <defs>
       <path id="DejaVuSans-4c" d="M 628 4666 
L 1259 4666 
L 1259 531 
L 3531 531 
L 3531 0 
L 628 0 
L 628 4666 
z
" transform="scale(0.015625)"/>
       <path id="DejaVuSans-67" d="M 2906 1791 
Q 2906 2416 2648 2759 
Q 2391 3103 1925 3103 
Q 1463 3103 1205 2759 
Q 947 2416 947 1791 
Q 947 1169 1205 825 
Q 1463 481 1925 481 
Q 2391 481 2648 825 
Q 2906 1169 2906 1791 
z
M 3481 434 
Q 3481 -459 3084 -895 
Q 2688 -1331 1869 -1331 
Q 1566 -1331 1297 -1286 
Q 1028 -1241 775 -1147 
L 775 -588 
Q 1028 -725 1275 -790 
Q 1522 -856 1778 -856 
Q 2344 -856 2625 -561 
Q 2906 -266 2906 331 
L 2906 616 
Q 2728 306 2450 153 
Q 2172 0 1784 0 
Q 1141 0 747 490 
Q 353 981 353 1791 
Q 353 2603 747 3093 
Q 1141 3584 1784 3584 
Q 2172 3584 2450 3431 
Q 2728 3278 2906 2969 
L 2906 3500 
L 3481 3500 
L 3481 434 
z
" transform="scale(0.015625)"/>
       <path id="DejaVuSans-68" d="M 3513 2113 
L 3513 0 
L 2938 0 
L 2938 2094 
Q 2938 2591 2744 2837 
Q 2550 3084 2163 3084 
Q 1697 3084 1428 2787 
Q 1159 2491 1159 1978 
L 1159 0 
L 581 0 
L 581 4863 
L 1159 4863 
L 1159 2956 
Q 1366 3272 1645 3428 
Q 1925 3584 2291 3584 
Q 2894 3584 3203 3211 
Q 3513 2838 3513 2113 
z
" transform="scale(0.015625)"/>
       <path id="DejaVuSans-44" d="M 1259 4147 
L 1259 519 
L 2022 519 
Q 2988 519 3436 956 
Q 3884 1394 3884 2338 
Q 3884 3275 3436 3711 
Q 2988 4147 2022 4147 
L 1259 4147 
z
M 628 4666 
L 1925 4666 
Q 3281 4666 3915 4102 
Q 4550 3538 4550 2338 
Q 4550 1131 3912 565 
Q 3275 0 1925 0 
L 628 0 
L 628 4666 
z
" transform="scale(0.015625)"/>
       <path id="DejaVuSans-73" d="M 2834 3397 
L 2834 2853 
Q 2591 2978 2328 3040 
Q 2066 3103 1784 3103 
Q 1356 3103 1142 2972 
Q 928 2841 928 2578 
Q 928 2378 1081 2264 
Q 1234 2150 1697 2047 
L 1894 2003 
Q 2506 1872 2764 1633 
Q 3022 1394 3022 966 
Q 3022 478 2636 193 
Q 2250 -91 1575 -91 
Q 1294 -91 989 -36 
Q 684 19 347 128 
L 347 722 
Q 666 556 975 473 
Q 1284 391 1588 391 
Q 1994 391 2212 530 
Q 2431 669 2431 922 
Q 2431 1156 2273 1281 
Q 2116 1406 1581 1522 
L 1381 1569 
Q 847 1681 609 1914 
Q 372 2147 372 2553 
Q 372 3047 722 3315 
Q 1072 3584 1716 3584 
Q 2034 3584 2315 3537 
Q 2597 3491 2834 3397 
z
" transform="scale(0.015625)"/>
      </defs>
      <use xlink:href="#DejaVuSans-53"/>
      <use xlink:href="#DejaVuSans-70" x="63.476562"/>
      <use xlink:href="#DejaVuSans-69" x="126.953125"/>
      <use xlink:href="#DejaVuSans-6e" x="154.736328"/>
      <use xlink:href="#DejaVuSans-64" x="218.115234"/>
      <use xlink:href="#DejaVuSans-6c" x="281.591797"/>
      <use xlink:href="#DejaVuSans-65" x="309.375"/>
      <use xlink:href="#DejaVuSans-20" x="370.898438"/>
      <use xlink:href="#DejaVuSans-4c" x="402.685547"/>
      <use xlink:href="#DejaVuSans-65" x="456.648438"/>
      <use xlink:href="#DejaVuSans-6e" x="518.171875"/>
      <use xlink:href="#DejaVuSans-67" x="581.550781"/>
      <use xlink:href="#DejaVuSans-74" x="645.027344"/>
      <use xlink:href="#DejaVuSans-68" x="684.236328"/>
      <use xlink:href="#DejaVuSans-20" x="747.615234"/>
      <use xlink:href="#DejaVuSans-44" x="779.402344"/>
      <use xlink:href="#DejaVuSans-69" x="856.404297"/>
      <use xlink:href="#DejaVuSans-73" x="884.1875"/>
      <use xlink:href="#DejaVuSans-70" x="936.287109"/>
      <use xlink:href="#DejaVuSans-65" x="999.763672"/>
      <use xlink:href="#DejaVuSans-72" x="1061.287109"/>
      <use xlink:href="#DejaVuSans-73" x="1102.400391"/>
      <use xlink:href="#DejaVuSans-69" x="1154.5"/>
      <use xlink:href="#DejaVuSans-6f" x="1182.283203"/>
      <use xlink:href="#DejaVuSans-6e" x="1243.464844"/>
     </g>
    </g>
   </g>
   <g id="line2d_18">
    <path d="M 59.684746 180.545179 
L 65.169492 197.182723 
L 70.654237 202.166524 
L 76.138983 200.336559 
L 81.623729 205.711747 
L 87.108475 199.562637 
L 92.59322 205.285443 
L 98.077966 201.058591 
L 103.562712 217.545055 
L 109.047458 210.318612 
L 114.532203 210.298804 
L 120.016949 216.257579 
L 125.501695 207.190594 
L 130.986441 203.357839 
L 136.471186 207.238971 
L 141.955932 197.11815 
L 147.440678 208.851371 
L 152.925424 214.255385 
L 158.410169 220.408262 
L 163.894915 237.527593 
L 169.379661 241.447878 
L 174.864407 243.182492 
L 180.349153 243.424011 
L 185.833898 241.839701 
L 191.318644 253.725566 
L 196.80339 252.306574 
L 202.288136 249.672371 
L 207.772881 259.991723 
L 213.257627 261.965956 
L 218.742373 261.394444 
L 224.227119 258.231006 
L 229.711864 216.491025 
L 235.19661 228.69069 
L 240.681356 225.711441 
L 246.166102 214.935991 
L 251.650847 205.40182 
L 257.135593 194.566261 
L 262.620339 184.496736 
L 268.105085 185.836939 
L 273.589831 175.760475 
L 279.074576 170.482957 
L 284.559322 191.275584 
L 290.044068 174.330639 
L 295.528814 181.014767 
L 301.013559 203.037019 
L 306.498305 196.928566 
L 311.983051 194.87802 
L 317.467797 202.35219 
L 322.952542 171.549651 
L 328.437288 187.472133 
L 333.922034 196.261421 
L 339.40678 207.037633 
L 344.891525 209.535585 
L 350.376271 214.096664 
L 355.861017 202.791034 
L 361.345763 200.448195 
L 366.830508 211.510995 
L 372.315254 208.319603 
L 377.8 227.03076 
" clip-path="url(#p05efefed7b)" style="fill: none; stroke: #ff7f0e; stroke-width: 1.5; stroke-linecap: square"/>
   </g>
   <g id="patch_3">
    <path d="M 54.2 318.04 
L 54.2 25.44 
" style="fill: none; stroke: #000000; stroke-width: 0.8; stroke-linejoin: miter; stroke-linecap: square"/>
   </g>
   <g id="patch_4">
    <path d="M 377.8 318.04 
L 377.8 25.44 
" style="fill: none; stroke: #000000; stroke-width: 0.8; stroke-linejoin: miter; stroke-linecap: square"/>
   </g>
   <g id="patch_5">
    <path d="M 54.2 318.04 
L 377.8 318.04 
" style="fill: none; stroke: #000000; stroke-width: 0.8; stroke-linejoin: miter; stroke-linecap: square"/>
   </g>
   <g id="patch_6">
    <path d="M 54.2 25.44 
L 377.8 25.44 
" style="fill: none; stroke: #000000; stroke-width: 0.8; stroke-linejoin: miter; stroke-linecap: square"/>
   </g>
  </g>
  <g id="axes_2">
   <g id="PolyCollection_2">
    <defs>
     <path id="m7291f1c5fe" d="M 59.684746 -173.535498 
L 59.684746 -196.775025 
L 65.169492 -200.923226 
L 70.654237 -200.347764 
L 76.138983 -202.164865 
L 81.623729 -205.161402 
L 87.108475 -207.131842 
L 92.59322 -208.406911 
L 98.077966 -210.146094 
L 103.562712 -214.449241 
L 109.047458 -218.041496 
L 114.532203 -219.192637 
L 120.016949 -220.722001 
L 125.501695 -221.430924 
L 130.986441 -222.150312 
L 136.471186 -222.021778 
L 141.955932 -222.69621 
L 147.440678 -222.805666 
L 152.925424 -223.097516 
L 158.410169 -221.919098 
L 163.894915 -225.354805 
L 169.379661 -227.204698 
L 174.864407 -229.248782 
L 180.349153 -231.278556 
L 185.833898 -233.899024 
L 191.318644 -236.630412 
L 196.80339 -238.123109 
L 202.288136 -238.712155 
L 207.772881 -241.443715 
L 213.257627 -242.650991 
L 218.742373 -243.003547 
L 224.227119 -242.767406 
L 229.711864 -245.222473 
L 235.19661 -248.820047 
L 240.681356 -248.241203 
L 246.166102 -248.884234 
L 251.650847 -252.220556 
L 257.135593 -255.420591 
L 262.620339 -258.308809 
L 268.105085 -263.624158 
L 273.589831 -264.264948 
L 279.074576 -263.018109 
L 284.559322 -266.094427 
L 290.044068 -269.957046 
L 295.528814 -273.401917 
L 301.013559 -273.522177 
L 306.498305 -278.306241 
L 311.983051 -279.817924 
L 317.467797 -282.84801 
L 322.952542 -286.380939 
L 328.437288 -264.69328 
L 333.922034 -266.121843 
L 339.40678 -270.690041 
L 344.891525 -276.370976 
L 350.376271 -282.634768 
L 355.861017 -286.714479 
L 361.345763 -275.14327 
L 366.830508 -285.55208 
L 372.315254 -290.345301 
L 377.8 -301.139315 
L 377.8 -237.009033 
L 377.8 -237.009033 
L 372.315254 -236.414807 
L 366.830508 -229.884401 
L 361.345763 -233.013415 
L 355.861017 -233.985198 
L 350.376271 -232.39553 
L 344.891525 -233.87624 
L 339.40678 -232.568218 
L 333.922034 -234.158545 
L 328.437288 -235.079361 
L 322.952542 -226.475629 
L 317.467797 -226.464299 
L 311.983051 -227.437573 
L 306.498305 -229.623302 
L 301.013559 -227.353014 
L 295.528814 -232.179922 
L 290.044068 -233.193127 
L 284.559322 -229.116416 
L 279.074576 -233.252728 
L 273.589831 -234.34864 
L 268.105085 -233.219223 
L 262.620339 -229.567111 
L 257.135593 -228.415146 
L 251.650847 -223.964866 
L 246.166102 -222.782744 
L 240.681356 -219.744687 
L 235.19661 -220.782217 
L 229.711864 -219.596476 
L 224.227119 -216.366779 
L 218.742373 -215.962031 
L 213.257627 -216.314421 
L 207.772881 -216.408422 
L 202.288136 -215.755759 
L 196.80339 -214.111456 
L 191.318644 -212.645912 
L 185.833898 -210.11283 
L 180.349153 -208.213753 
L 174.864407 -206.627887 
L 169.379661 -205.723566 
L 163.894915 -204.39718 
L 158.410169 -203.514315 
L 152.925424 -205.087324 
L 147.440678 -206.210271 
L 141.955932 -207.077141 
L 136.471186 -206.719617 
L 130.986441 -207.036658 
L 125.501695 -205.864718 
L 120.016949 -204.663241 
L 114.532203 -203.421423 
L 109.047458 -202.589304 
L 103.562712 -199.371407 
L 98.077966 -194.934472 
L 92.59322 -193.003179 
L 87.108475 -191.383932 
L 81.623729 -189.411383 
L 76.138983 -186.686819 
L 70.654237 -182.343145 
L 65.169492 -180.030774 
L 59.684746 -173.535498 
z
" style="stroke: #1f77b4; stroke-opacity: 0.3"/>
    </defs>
    <g clip-path="url(#p05efefed7b)">
     <use xlink:href="#m7291f1c5fe" x="0" y="360" style="fill: #1f77b4; fill-opacity: 0.3; stroke: #1f77b4; stroke-opacity: 0.3"/>
    </g>
   </g>
   <g id="PolyCollection_3">
    <defs>
     <path id="m036227b4aa" d="M 59.684746 -63.44159 
L 59.684746 -67.822216 
L 65.169492 -66.699368 
L 70.654237 -66.783889 
L 76.138983 -67.459799 
L 81.623729 -67.377704 
L 87.108475 -68.235882 
L 92.59322 -69.362612 
L 98.077966 -69.319122 
L 103.562712 -69.950296 
L 109.047458 -70.756217 
L 114.532203 -71.305198 
L 120.016949 -71.328388 
L 125.501695 -72.920118 
L 130.986441 -74.104517 
L 136.471186 -74.264532 
L 141.955932 -73.293946 
L 147.440678 -74.368127 
L 152.925424 -75.438816 
L 158.410169 -75.189275 
L 163.894915 -77.220097 
L 169.379661 -78.950509 
L 174.864407 -78.364617 
L 180.349153 -78.801369 
L 185.833898 -79.757481 
L 191.318644 -80.978474 
L 196.80339 -81.32074 
L 202.288136 -81.015163 
L 207.772881 -81.241675 
L 213.257627 -81.367294 
L 218.742373 -81.636254 
L 224.227119 -82.781228 
L 229.711864 -83.327407 
L 235.19661 -84.455499 
L 240.681356 -85.348632 
L 246.166102 -87.806078 
L 251.650847 -89.680189 
L 257.135593 -92.096072 
L 262.620339 -94.014515 
L 268.105085 -96.855324 
L 273.589831 -100.267198 
L 279.074576 -103.979491 
L 284.559322 -107.796175 
L 290.044068 -112.715368 
L 295.528814 -116.963033 
L 301.013559 -121.69192 
L 306.498305 -127.588725 
L 311.983051 -132.512691 
L 317.467797 -136.201606 
L 322.952542 -144.794417 
L 328.437288 -109.714293 
L 333.922034 -113.041545 
L 339.40678 -118.339463 
L 344.891525 -123.750132 
L 350.376271 -129.427977 
L 355.861017 -136.770139 
L 361.345763 -117.652564 
L 366.830508 -123.457523 
L 372.315254 -126.969449 
L 377.8 -133.753075 
L 377.8 -112.320786 
L 377.8 -112.320786 
L 372.315254 -105.859003 
L 366.830508 -99.926884 
L 361.345763 -97.23293 
L 355.861017 -90.673311 
L 350.376271 -90.6632 
L 344.891525 -91.603537 
L 339.40678 -91.244612 
L 333.922034 -90.36995 
L 328.437288 -89.930133 
L 322.952542 -71.450351 
L 317.467797 -74.258986 
L 311.983051 -76.735389 
L 306.498305 -78.790082 
L 301.013559 -80.988925 
L 295.528814 -83.175313 
L 290.044068 -85.715363 
L 284.559322 -86.135293 
L 279.074576 -86.399105 
L 273.589831 -86.024651 
L 268.105085 -85.216442 
L 262.620339 -84.482396 
L 257.135593 -83.948612 
L 251.650847 -81.931118 
L 246.166102 -80.78959 
L 240.681356 -78.719579 
L 235.19661 -78.320492 
L 229.711864 -77.764135 
L 224.227119 -77.365685 
L 218.742373 -76.571009 
L 213.257627 -76.287591 
L 207.772881 -76.156967 
L 202.288136 -76.360941 
L 196.80339 -76.572225 
L 191.318644 -76.372853 
L 185.833898 -75.276682 
L 180.349153 -74.498838 
L 174.864407 -73.888763 
L 169.379661 -74.254599 
L 163.894915 -72.379987 
L 158.410169 -70.784126 
L 152.925424 -70.698732 
L 147.440678 -69.613475 
L 141.955932 -68.71125 
L 136.471186 -69.421173 
L 130.986441 -69.468671 
L 125.501695 -68.63457 
L 120.016949 -67.062373 
L 114.532203 -66.944419 
L 109.047458 -66.646968 
L 103.562712 -66.174372 
L 98.077966 -65.785857 
L 92.59322 -65.593181 
L 87.108475 -64.788444 
L 81.623729 -64.103537 
L 76.138983 -63.82344 
L 70.654237 -63.485799 
L 65.169492 -63.629086 
L 59.684746 -63.44159 
z
" style="stroke: #2ca02c; stroke-opacity: 0.3"/>
    </defs>
    <g clip-path="url(#p05efefed7b)">
     <use xlink:href="#m036227b4aa" x="0" y="360" style="fill: #2ca02c; fill-opacity: 0.3; stroke: #2ca02c; stroke-opacity: 0.3"/>
    </g>
   </g>
   <g id="matplotlib.axis_3">
    <g id="ytick_9">
     <g id="line2d_19">
      <defs>
       <path id="mcaddcf7066" d="M 0 0 
L 3.5 0 
" style="stroke: #000000; stroke-width: 0.8"/>
      </defs>
      <g>
       <use xlink:href="#mcaddcf7066" x="377.8" y="318.04" style="stroke: #000000; stroke-width: 0.8"/>
      </g>
     </g>
     <g id="text_20">
      <!-- 0.00 -->
      <g transform="translate(384.8 321.839219) scale(0.1 -0.1)">
       <use xlink:href="#DejaVuSans-30"/>
       <use xlink:href="#DejaVuSans-2e" x="63.623047"/>
       <use xlink:href="#DejaVuSans-30" x="95.410156"/>
       <use xlink:href="#DejaVuSans-30" x="159.033203"/>
      </g>
     </g>
    </g>
    <g id="ytick_10">
     <g id="line2d_20">
      <g>
       <use xlink:href="#mcaddcf7066" x="377.8" y="281.465" style="stroke: #000000; stroke-width: 0.8"/>
      </g>
     </g>
     <g id="text_21">
      <!-- 0.25 -->
      <g transform="translate(384.8 285.264219) scale(0.1 -0.1)">
       <use xlink:href="#DejaVuSans-30"/>
       <use xlink:href="#DejaVuSans-2e" x="63.623047"/>
       <use xlink:href="#DejaVuSans-32" x="95.410156"/>
       <use xlink:href="#DejaVuSans-35" x="159.033203"/>
      </g>
     </g>
    </g>
    <g id="ytick_11">
     <g id="line2d_21">
      <g>
       <use xlink:href="#mcaddcf7066" x="377.8" y="244.89" style="stroke: #000000; stroke-width: 0.8"/>
      </g>
     </g>
     <g id="text_22">
      <!-- 0.50 -->
      <g transform="translate(384.8 248.689219) scale(0.1 -0.1)">
       <use xlink:href="#DejaVuSans-30"/>
       <use xlink:href="#DejaVuSans-2e" x="63.623047"/>
       <use xlink:href="#DejaVuSans-35" x="95.410156"/>
       <use xlink:href="#DejaVuSans-30" x="159.033203"/>
      </g>
     </g>
    </g>
    <g id="ytick_12">
     <g id="line2d_22">
      <g>
       <use xlink:href="#mcaddcf7066" x="377.8" y="208.315" style="stroke: #000000; stroke-width: 0.8"/>
      </g>
     </g>
     <g id="text_23">
      <!-- 0.75 -->
      <g transform="translate(384.8 212.114219) scale(0.1 -0.1)">
       <use xlink:href="#DejaVuSans-30"/>
       <use xlink:href="#DejaVuSans-2e" x="63.623047"/>
       <use xlink:href="#DejaVuSans-37" x="95.410156"/>
       <use xlink:href="#DejaVuSans-35" x="159.033203"/>
      </g>
     </g>
    </g>
    <g id="ytick_13">
     <g id="line2d_23">
      <g>
       <use xlink:href="#mcaddcf7066" x="377.8" y="171.74" style="stroke: #000000; stroke-width: 0.8"/>
      </g>
     </g>
     <g id="text_24">
      <!-- 1.00 -->
      <g transform="translate(384.8 175.539219) scale(0.1 -0.1)">
       <use xlink:href="#DejaVuSans-31"/>
       <use xlink:href="#DejaVuSans-2e" x="63.623047"/>
       <use xlink:href="#DejaVuSans-30" x="95.410156"/>
       <use xlink:href="#DejaVuSans-30" x="159.033203"/>
      </g>
     </g>
    </g>
    <g id="ytick_14">
     <g id="line2d_24">
      <g>
       <use xlink:href="#mcaddcf7066" x="377.8" y="135.165" style="stroke: #000000; stroke-width: 0.8"/>
      </g>
     </g>
     <g id="text_25">
      <!-- 1.25 -->
      <g transform="translate(384.8 138.964219) scale(0.1 -0.1)">
       <use xlink:href="#DejaVuSans-31"/>
       <use xlink:href="#DejaVuSans-2e" x="63.623047"/>
       <use xlink:href="#DejaVuSans-32" x="95.410156"/>
       <use xlink:href="#DejaVuSans-35" x="159.033203"/>
      </g>
     </g>
    </g>
    <g id="ytick_15">
     <g id="line2d_25">
      <g>
       <use xlink:href="#mcaddcf7066" x="377.8" y="98.59" style="stroke: #000000; stroke-width: 0.8"/>
      </g>
     </g>
     <g id="text_26">
      <!-- 1.50 -->
      <g transform="translate(384.8 102.389219) scale(0.1 -0.1)">
       <use xlink:href="#DejaVuSans-31"/>
       <use xlink:href="#DejaVuSans-2e" x="63.623047"/>
       <use xlink:href="#DejaVuSans-35" x="95.410156"/>
       <use xlink:href="#DejaVuSans-30" x="159.033203"/>
      </g>
     </g>
    </g>
    <g id="ytick_16">
     <g id="line2d_26">
      <g>
       <use xlink:href="#mcaddcf7066" x="377.8" y="62.015" style="stroke: #000000; stroke-width: 0.8"/>
      </g>
     </g>
     <g id="text_27">
      <!-- 1.75 -->
      <g transform="translate(384.8 65.814219) scale(0.1 -0.1)">
       <use xlink:href="#DejaVuSans-31"/>
       <use xlink:href="#DejaVuSans-2e" x="63.623047"/>
       <use xlink:href="#DejaVuSans-37" x="95.410156"/>
       <use xlink:href="#DejaVuSans-35" x="159.033203"/>
      </g>
     </g>
    </g>
    <g id="ytick_17">
     <g id="line2d_27">
      <g>
       <use xlink:href="#mcaddcf7066" x="377.8" y="25.44" style="stroke: #000000; stroke-width: 0.8"/>
      </g>
     </g>
     <g id="text_28">
      <!-- 2.00 -->
      <g transform="translate(384.8 29.239219) scale(0.1 -0.1)">
       <use xlink:href="#DejaVuSans-32"/>
       <use xlink:href="#DejaVuSans-2e" x="63.623047"/>
       <use xlink:href="#DejaVuSans-30" x="95.410156"/>
       <use xlink:href="#DejaVuSans-30" x="159.033203"/>
      </g>
     </g>
    </g>
    <g id="text_29">
     <!-- Mean Separation (micron) -->
     <g transform="translate(418.664062 236.80875) rotate(-90) scale(0.1 -0.1)">
      <defs>
       <path id="DejaVuSans-4d" d="M 628 4666 
L 1569 4666 
L 2759 1491 
L 3956 4666 
L 4897 4666 
L 4897 0 
L 4281 0 
L 4281 4097 
L 3078 897 
L 2444 897 
L 1241 4097 
L 1241 0 
L 628 0 
L 628 4666 
z
" transform="scale(0.015625)"/>
       <path id="DejaVuSans-63" d="M 3122 3366 
L 3122 2828 
Q 2878 2963 2633 3030 
Q 2388 3097 2138 3097 
Q 1578 3097 1268 2742 
Q 959 2388 959 1747 
Q 959 1106 1268 751 
Q 1578 397 2138 397 
Q 2388 397 2633 464 
Q 2878 531 3122 666 
L 3122 134 
Q 2881 22 2623 -34 
Q 2366 -91 2075 -91 
Q 1284 -91 818 406 
Q 353 903 353 1747 
Q 353 2603 823 3093 
Q 1294 3584 2113 3584 
Q 2378 3584 2631 3529 
Q 2884 3475 3122 3366 
z
" transform="scale(0.015625)"/>
      </defs>
      <use xlink:href="#DejaVuSans-4d"/>
      <use xlink:href="#DejaVuSans-65" x="86.279297"/>
      <use xlink:href="#DejaVuSans-61" x="147.802734"/>
      <use xlink:href="#DejaVuSans-6e" x="209.082031"/>
      <use xlink:href="#DejaVuSans-20" x="272.460938"/>
      <use xlink:href="#DejaVuSans-53" x="304.248047"/>
      <use xlink:href="#DejaVuSans-65" x="367.724609"/>
      <use xlink:href="#DejaVuSans-70" x="429.248047"/>
      <use xlink:href="#DejaVuSans-61" x="492.724609"/>
      <use xlink:href="#DejaVuSans-72" x="554.003906"/>
      <use xlink:href="#DejaVuSans-61" x="595.117188"/>
      <use xlink:href="#DejaVuSans-74" x="656.396484"/>
      <use xlink:href="#DejaVuSans-69" x="695.605469"/>
      <use xlink:href="#DejaVuSans-6f" x="723.388672"/>
      <use xlink:href="#DejaVuSans-6e" x="784.570312"/>
      <use xlink:href="#DejaVuSans-20" x="847.949219"/>
      <use xlink:href="#DejaVuSans-28" x="879.736328"/>
      <use xlink:href="#DejaVuSans-6d" x="918.75"/>
      <use xlink:href="#DejaVuSans-69" x="1016.162109"/>
      <use xlink:href="#DejaVuSans-63" x="1043.945312"/>
      <use xlink:href="#DejaVuSans-72" x="1098.925781"/>
      <use xlink:href="#DejaVuSans-6f" x="1137.789062"/>
      <use xlink:href="#DejaVuSans-6e" x="1198.970703"/>
      <use xlink:href="#DejaVuSans-29" x="1262.349609"/>
     </g>
    </g>
   </g>
   <g id="line2d_28">
    <path d="M 59.684746 174.844739 
L 65.169492 169.523 
L 70.654237 168.654546 
L 76.138983 165.574158 
L 81.623729 162.713608 
L 87.108475 160.742113 
L 92.59322 159.294955 
L 98.077966 157.459717 
L 103.562712 153.089676 
L 109.047458 149.6846 
L 114.532203 148.69297 
L 120.016949 147.307379 
L 125.501695 146.352179 
L 130.986441 145.406515 
L 136.471186 145.629303 
L 141.955932 145.113324 
L 147.440678 145.492031 
L 152.925424 145.90758 
L 158.410169 147.283294 
L 163.894915 145.124008 
L 169.379661 143.535868 
L 174.864407 142.061665 
L 180.349153 140.253846 
L 185.833898 137.994073 
L 191.318644 135.361838 
L 196.80339 133.882717 
L 202.288136 132.766043 
L 207.772881 131.073931 
L 213.257627 130.517294 
L 218.742373 130.517211 
L 224.227119 130.432907 
L 229.711864 127.590526 
L 235.19661 125.198868 
L 240.681356 126.007055 
L 246.166102 124.166511 
L 251.650847 121.907289 
L 257.135593 118.082131 
L 262.620339 116.06204 
L 268.105085 111.57831 
L 273.589831 110.693206 
L 279.074576 111.864582 
L 284.559322 112.394578 
L 290.044068 108.424914 
L 295.528814 107.209081 
L 301.013559 109.562405 
L 306.498305 106.035229 
L 311.983051 106.372251 
L 317.467797 105.343845 
L 322.952542 103.571716 
L 328.437288 110.113679 
L 333.922034 109.859806 
L 339.40678 108.370871 
L 344.891525 104.876392 
L 350.376271 102.484851 
L 355.861017 99.650162 
L 361.345763 105.921657 
L 366.830508 102.28176 
L 372.315254 96.619946 
L 377.8 90.925826 
" clip-path="url(#p05efefed7b)" style="fill: none; stroke: #1f77b4; stroke-width: 1.5; stroke-linecap: square"/>
   </g>
   <g id="line2d_29">
    <path d="M 59.684746 294.368097 
L 65.169492 294.835773 
L 70.654237 294.865156 
L 76.138983 294.358381 
L 81.623729 294.259379 
L 87.108475 293.487837 
L 92.59322 292.522104 
L 98.077966 292.447511 
L 103.562712 291.937666 
L 109.047458 291.298408 
L 114.532203 290.875192 
L 120.016949 290.80462 
L 125.501695 289.222656 
L 130.986441 288.213406 
L 136.471186 288.157148 
L 141.955932 288.997402 
L 147.440678 288.009199 
L 152.925424 286.931226 
L 158.410169 287.013299 
L 163.894915 285.199958 
L 169.379661 283.397446 
L 174.864407 283.87331 
L 180.349153 283.349897 
L 185.833898 282.482918 
L 191.318644 281.324337 
L 196.80339 281.053518 
L 202.288136 281.311948 
L 207.772881 281.300679 
L 213.257627 281.172557 
L 218.742373 280.896369 
L 224.227119 279.926543 
L 229.711864 279.454229 
L 235.19661 278.612004 
L 240.681356 277.965894 
L 246.166102 275.702166 
L 251.650847 274.194347 
L 257.135593 271.977658 
L 262.620339 270.751544 
L 268.105085 268.964117 
L 273.589831 266.854076 
L 279.074576 264.810702 
L 284.559322 263.034266 
L 290.044068 260.784635 
L 295.528814 259.930827 
L 301.013559 258.659578 
L 306.498305 256.810596 
L 311.983051 255.37596 
L 317.467797 254.769704 
L 322.952542 251.877616 
L 328.437288 260.177787 
L 333.922034 258.294252 
L 339.40678 255.207963 
L 344.891525 252.323166 
L 350.376271 249.954411 
L 355.861017 246.278275 
L 361.345763 252.557253 
L 366.830508 248.307797 
L 372.315254 243.585774 
L 377.8 236.963069 
" clip-path="url(#p05efefed7b)" style="fill: none; stroke: #2ca02c; stroke-width: 1.5; stroke-linecap: square"/>
   </g>
   <g id="patch_7">
    <path d="M 54.2 318.04 
L 54.2 25.44 
" style="fill: none; stroke: #000000; stroke-width: 0.8; stroke-linejoin: miter; stroke-linecap: square"/>
   </g>
   <g id="patch_8">
    <path d="M 377.8 318.04 
L 377.8 25.44 
" style="fill: none; stroke: #000000; stroke-width: 0.8; stroke-linejoin: miter; stroke-linecap: square"/>
   </g>
   <g id="patch_9">
    <path d="M 54.2 318.04 
L 377.8 318.04 
" style="fill: none; stroke: #000000; stroke-width: 0.8; stroke-linejoin: miter; stroke-linecap: square"/>
   </g>
   <g id="patch_10">
    <path d="M 54.2 25.44 
L 377.8 25.44 
" style="fill: none; stroke: #000000; stroke-width: 0.8; stroke-linejoin: miter; stroke-linecap: square"/>
   </g>
   <g id="text_30">
    <!-- Khalid Data Only: Wild Type (n=51) -->
    <g transform="translate(110.385937 19.44) scale(0.12 -0.12)">
     <defs>
      <path id="DejaVuSans-4b" d="M 628 4666 
L 1259 4666 
L 1259 2694 
L 3353 4666 
L 4166 4666 
L 1850 2491 
L 4331 0 
L 3500 0 
L 1259 2247 
L 1259 0 
L 628 0 
L 628 4666 
z
" transform="scale(0.015625)"/>
      <path id="DejaVuSans-4f" d="M 2522 4238 
Q 1834 4238 1429 3725 
Q 1025 3213 1025 2328 
Q 1025 1447 1429 934 
Q 1834 422 2522 422 
Q 3209 422 3611 934 
Q 4013 1447 4013 2328 
Q 4013 3213 3611 3725 
Q 3209 4238 2522 4238 
z
M 2522 4750 
Q 3503 4750 4090 4092 
Q 4678 3434 4678 2328 
Q 4678 1225 4090 567 
Q 3503 -91 2522 -91 
Q 1538 -91 948 565 
Q 359 1222 359 2328 
Q 359 3434 948 4092 
Q 1538 4750 2522 4750 
z
" transform="scale(0.015625)"/>
      <path id="DejaVuSans-79" d="M 2059 -325 
Q 1816 -950 1584 -1140 
Q 1353 -1331 966 -1331 
L 506 -1331 
L 506 -850 
L 844 -850 
Q 1081 -850 1212 -737 
Q 1344 -625 1503 -206 
L 1606 56 
L 191 3500 
L 800 3500 
L 1894 763 
L 2988 3500 
L 3597 3500 
L 2059 -325 
z
" transform="scale(0.015625)"/>
      <path id="DejaVuSans-3a" d="M 750 794 
L 1409 794 
L 1409 0 
L 750 0 
L 750 794 
z
M 750 3309 
L 1409 3309 
L 1409 2516 
L 750 2516 
L 750 3309 
z
" transform="scale(0.015625)"/>
      <path id="DejaVuSans-57" d="M 213 4666 
L 850 4666 
L 1831 722 
L 2809 4666 
L 3519 4666 
L 4500 722 
L 5478 4666 
L 6119 4666 
L 4947 0 
L 4153 0 
L 3169 4050 
L 2175 0 
L 1381 0 
L 213 4666 
z
" transform="scale(0.015625)"/>
      <path id="DejaVuSans-3d" d="M 678 2906 
L 4684 2906 
L 4684 2381 
L 678 2381 
L 678 2906 
z
M 678 1631 
L 4684 1631 
L 4684 1100 
L 678 1100 
L 678 1631 
z
" transform="scale(0.015625)"/>
     </defs>
     <use xlink:href="#DejaVuSans-4b"/>
     <use xlink:href="#DejaVuSans-68" x="65.576172"/>
     <use xlink:href="#DejaVuSans-61" x="128.955078"/>
     <use xlink:href="#DejaVuSans-6c" x="190.234375"/>
     <use xlink:href="#DejaVuSans-69" x="218.017578"/>
     <use xlink:href="#DejaVuSans-64" x="245.800781"/>
     <use xlink:href="#DejaVuSans-20" x="309.277344"/>
     <use xlink:href="#DejaVuSans-44" x="341.064453"/>
     <use xlink:href="#DejaVuSans-61" x="418.066406"/>
     <use xlink:href="#DejaVuSans-74" x="479.345703"/>
     <use xlink:href="#DejaVuSans-61" x="518.554688"/>
     <use xlink:href="#DejaVuSans-20" x="579.833984"/>
     <use xlink:href="#DejaVuSans-4f" x="611.621094"/>
     <use xlink:href="#DejaVuSans-6e" x="690.332031"/>
     <use xlink:href="#DejaVuSans-6c" x="753.710938"/>
     <use xlink:href="#DejaVuSans-79" x="781.494141"/>
     <use xlink:href="#DejaVuSans-3a" x="833.423828"/>
     <use xlink:href="#DejaVuSans-20" x="867.115234"/>
     <use xlink:href="#DejaVuSans-57" x="898.902344"/>
     <use xlink:href="#DejaVuSans-69" x="995.529297"/>
     <use xlink:href="#DejaVuSans-6c" x="1023.3125"/>
     <use xlink:href="#DejaVuSans-64" x="1051.095703"/>
     <use xlink:href="#DejaVuSans-20" x="1114.572266"/>
     <use xlink:href="#DejaVuSans-54" x="1146.359375"/>
     <use xlink:href="#DejaVuSans-79" x="1191.818359"/>
     <use xlink:href="#DejaVuSans-70" x="1250.998047"/>
     <use xlink:href="#DejaVuSans-65" x="1314.474609"/>
     <use xlink:href="#DejaVuSans-20" x="1375.998047"/>
     <use xlink:href="#DejaVuSans-28" x="1407.785156"/>
     <use xlink:href="#DejaVuSans-6e" x="1446.798828"/>
     <use xlink:href="#DejaVuSans-3d" x="1510.177734"/>
     <use xlink:href="#DejaVuSans-35" x="1593.966797"/>
     <use xlink:href="#DejaVuSans-31" x="1657.589844"/>
     <use xlink:href="#DejaVuSans-29" x="1721.212891"/>
    </g>
   </g>
  </g>
 </g>
 <defs>
  <clipPath id="p05efefed7b">
   <rect x="54.2" y="25.44" width="323.6" height="292.6"/>
  </clipPath>
 </defs>
</svg>
