<?xml version="1.0" encoding="utf-8" standalone="no"?>
<!DOCTYPE svg PUBLIC "-//W3C//DTD SVG 1.1//EN"
  "http://www.w3.org/Graphics/SVG/1.1/DTD/svg11.dtd">
<svg xmlns:xlink="http://www.w3.org/1999/xlink" width="432pt" height="360pt" viewBox="0 0 432 360" xmlns="http://www.w3.org/2000/svg" version="1.1">
 <metadata>
  <rdf:RDF xmlns:dc="http://purl.org/dc/elements/1.1/" xmlns:cc="http://creativecommons.org/ns#" xmlns:rdf="http://www.w3.org/1999/02/22-rdf-syntax-ns#">
   <cc:Work>
    <dc:type rdf:resource="http://purl.org/dc/dcmitype/StillImage"/>
    <dc:date>2024-10-29T15:05:11.145348</dc:date>
    <dc:format>image/svg+xml</dc:format>
    <dc:creator>
     <cc:Agent>
      <dc:title>Matplotlib v3.8.4, https://matplotlib.org/</dc:title>
     </cc:Agent>
    </dc:creator>
   </cc:Work>
  </rdf:RDF>
 </metadata>
 <defs>
  <style type="text/css">*{stroke-linejoin: round; stroke-linecap: butt}</style>
 </defs>
 <g id="figure_1">
  <g id="patch_1">
   <path d="M 0 360 
L 432 360 
L 432 0 
L 0 0 
z
" style="fill: #ffffff"/>
  </g>
  <g id="axes_1">
   <g id="patch_2">
    <path d="M 54.2 318.04 
L 377.8 318.04 
L 377.8 25.44 
L 54.2 25.44 
z
" style="fill: #ffffff"/>
   </g>
   <g id="PolyCollection_1">
    <defs>
     <path id="meddc7236a9" d="M 59.684746 -153.926072 
L 59.684746 -181.268804 
L 65.169492 -182.138453 
L 70.654237 -228.819254 
L 76.138983 -209.651165 
L 81.623729 -198.709791 
L 87.108475 -208.939792 
L 92.59322 -211.467493 
L 98.077966 -218.892823 
L 103.562712 -213.155911 
L 109.047458 -206.181018 
L 114.532203 -205.900472 
L 120.016949 -194.721004 
L 125.501695 -173.261929 
L 130.986441 -164.237741 
L 136.471186 -169.174697 
L 141.955932 -174.775765 
L 147.440678 -165.783156 
L 152.925424 -162.051914 
L 158.410169 -154.867137 
L 163.894915 -152.36879 
L 169.379661 -154.578172 
L 174.864407 -158.234915 
L 180.349153 -170.862758 
L 185.833898 -163.743577 
L 191.318644 -156.51084 
L 196.80339 -161.712342 
L 202.288136 -175.162407 
L 207.772881 -191.022858 
L 213.257627 -190.437888 
L 218.742373 -178.91541 
L 224.227119 -187.901576 
L 229.711864 -174.593277 
L 235.19661 -170.799993 
L 240.681356 -181.732832 
L 246.166102 -186.58016 
L 251.650847 -181.279731 
L 257.135593 -182.892127 
L 262.620339 -188.866734 
L 268.105085 -169.124753 
L 273.589831 -180.690742 
L 279.074576 -155.773042 
L 284.559322 -152.536878 
L 290.044068 -167.870364 
L 295.528814 -174.199611 
L 301.013559 -130.050166 
L 306.498305 -143.959811 
L 311.983051 -163.696349 
L 317.467797 -181.174598 
L 322.952542 -176.561037 
L 328.437288 -160.306639 
L 333.922034 -169.943374 
L 339.40678 -168.869253 
L 344.891525 -144.601163 
L 350.376271 -153.030771 
L 355.861017 -167.996278 
L 361.345763 -189.062867 
L 366.830508 -150.170975 
L 372.315254 -165.368954 
L 377.8 -152.91878 
L 377.8 -124.252466 
L 377.8 -124.252466 
L 372.315254 -127.921118 
L 366.830508 -124.185964 
L 361.345763 -153.571743 
L 355.861017 -143.529872 
L 350.376271 -135.610183 
L 344.891525 -127.618942 
L 339.40678 -141.510091 
L 333.922034 -146.607703 
L 328.437288 -141.126889 
L 322.952542 -155.540274 
L 317.467797 -160.825639 
L 311.983051 -152.663612 
L 306.498305 -134.310773 
L 301.013559 -121.702386 
L 295.528814 -146.383909 
L 290.044068 -144.537902 
L 284.559322 -141.081824 
L 279.074576 -140.962766 
L 273.589831 -144.240555 
L 268.105085 -136.404839 
L 262.620339 -149.038205 
L 257.135593 -147.520572 
L 251.650847 -152.655974 
L 246.166102 -152.211539 
L 240.681356 -150.688802 
L 235.19661 -145.095732 
L 229.711864 -151.12903 
L 224.227119 -155.913967 
L 218.742373 -151.487172 
L 213.257627 -157.698429 
L 207.772881 -154.053776 
L 202.288136 -152.430137 
L 196.80339 -144.060932 
L 191.318644 -142.774038 
L 185.833898 -147.888452 
L 180.349153 -153.943894 
L 174.864407 -148.906461 
L 169.379661 -146.27265 
L 163.894915 -145.555873 
L 158.410169 -148.549949 
L 152.925424 -154.049404 
L 147.440678 -157.152926 
L 141.955932 -165.694535 
L 136.471186 -157.284396 
L 130.986441 -154.891846 
L 125.501695 -164.050384 
L 120.016949 -178.005951 
L 114.532203 -186.130829 
L 109.047458 -187.063844 
L 103.562712 -190.877412 
L 98.077966 -201.010376 
L 92.59322 -194.913226 
L 87.108475 -191.318796 
L 81.623729 -180.753788 
L 76.138983 -182.31264 
L 70.654237 -182.09068 
L 65.169492 -154.971555 
L 59.684746 -153.926072 
z
" style="stroke: #ff7f0e; stroke-opacity: 0.3"/>
    </defs>
    <g clip-path="url(#p3d38010151)">
     <use xlink:href="#meddc7236a9" x="0" y="360" style="fill: #ff7f0e; fill-opacity: 0.3; stroke: #ff7f0e; stroke-opacity: 0.3"/>
    </g>
   </g>
   <g id="matplotlib.axis_1">
    <g id="xtick_1">
     <g id="line2d_1">
      <defs>
       <path id="m203e38f6d3" d="M 0 0 
L 0 3.5 
" style="stroke: #000000; stroke-width: 0.8"/>
      </defs>
      <g>
       <use xlink:href="#m203e38f6d3" x="54.2" y="318.04" style="stroke: #000000; stroke-width: 0.8"/>
      </g>
     </g>
     <g id="text_1">
      <!-- 0.0 -->
      <g transform="translate(46.248438 332.638438) scale(0.1 -0.1)">
       <defs>
        <path id="DejaVuSans-30" d="M 2034 4250 
Q 1547 4250 1301 3770 
Q 1056 3291 1056 2328 
Q 1056 1369 1301 889 
Q 1547 409 2034 409 
Q 2525 409 2770 889 
Q 3016 1369 3016 2328 
Q 3016 3291 2770 3770 
Q 2525 4250 2034 4250 
z
M 2034 4750 
Q 2819 4750 3233 4129 
Q 3647 3509 3647 2328 
Q 3647 1150 3233 529 
Q 2819 -91 2034 -91 
Q 1250 -91 836 529 
Q 422 1150 422 2328 
Q 422 3509 836 4129 
Q 1250 4750 2034 4750 
z
" transform="scale(0.015625)"/>
        <path id="DejaVuSans-2e" d="M 684 794 
L 1344 794 
L 1344 0 
L 684 0 
L 684 794 
z
" transform="scale(0.015625)"/>
       </defs>
       <use xlink:href="#DejaVuSans-30"/>
       <use xlink:href="#DejaVuSans-2e" x="63.623047"/>
       <use xlink:href="#DejaVuSans-30" x="95.410156"/>
      </g>
     </g>
    </g>
    <g id="xtick_2">
     <g id="line2d_2">
      <g>
       <use xlink:href="#m203e38f6d3" x="94.65" y="318.04" style="stroke: #000000; stroke-width: 0.8"/>
      </g>
     </g>
     <g id="text_2">
      <!-- 2.5 -->
      <g transform="translate(86.698438 332.638438) scale(0.1 -0.1)">
       <defs>
        <path id="DejaVuSans-32" d="M 1228 531 
L 3431 531 
L 3431 0 
L 469 0 
L 469 531 
Q 828 903 1448 1529 
Q 2069 2156 2228 2338 
Q 2531 2678 2651 2914 
Q 2772 3150 2772 3378 
Q 2772 3750 2511 3984 
Q 2250 4219 1831 4219 
Q 1534 4219 1204 4116 
Q 875 4013 500 3803 
L 500 4441 
Q 881 4594 1212 4672 
Q 1544 4750 1819 4750 
Q 2544 4750 2975 4387 
Q 3406 4025 3406 3419 
Q 3406 3131 3298 2873 
Q 3191 2616 2906 2266 
Q 2828 2175 2409 1742 
Q 1991 1309 1228 531 
z
" transform="scale(0.015625)"/>
        <path id="DejaVuSans-35" d="M 691 4666 
L 3169 4666 
L 3169 4134 
L 1269 4134 
L 1269 2991 
Q 1406 3038 1543 3061 
Q 1681 3084 1819 3084 
Q 2600 3084 3056 2656 
Q 3513 2228 3513 1497 
Q 3513 744 3044 326 
Q 2575 -91 1722 -91 
Q 1428 -91 1123 -41 
Q 819 9 494 109 
L 494 744 
Q 775 591 1075 516 
Q 1375 441 1709 441 
Q 2250 441 2565 725 
Q 2881 1009 2881 1497 
Q 2881 1984 2565 2268 
Q 2250 2553 1709 2553 
Q 1456 2553 1204 2497 
Q 953 2441 691 2322 
L 691 4666 
z
" transform="scale(0.015625)"/>
       </defs>
       <use xlink:href="#DejaVuSans-32"/>
       <use xlink:href="#DejaVuSans-2e" x="63.623047"/>
       <use xlink:href="#DejaVuSans-35" x="95.410156"/>
      </g>
     </g>
    </g>
    <g id="xtick_3">
     <g id="line2d_3">
      <g>
       <use xlink:href="#m203e38f6d3" x="135.1" y="318.04" style="stroke: #000000; stroke-width: 0.8"/>
      </g>
     </g>
     <g id="text_3">
      <!-- 5.0 -->
      <g transform="translate(127.148438 332.638438) scale(0.1 -0.1)">
       <use xlink:href="#DejaVuSans-35"/>
       <use xlink:href="#DejaVuSans-2e" x="63.623047"/>
       <use xlink:href="#DejaVuSans-30" x="95.410156"/>
      </g>
     </g>
    </g>
    <g id="xtick_4">
     <g id="line2d_4">
      <g>
       <use xlink:href="#m203e38f6d3" x="175.55" y="318.04" style="stroke: #000000; stroke-width: 0.8"/>
      </g>
     </g>
     <g id="text_4">
      <!-- 7.5 -->
      <g transform="translate(167.598438 332.638438) scale(0.1 -0.1)">
       <defs>
        <path id="DejaVuSans-37" d="M 525 4666 
L 3525 4666 
L 3525 4397 
L 1831 0 
L 1172 0 
L 2766 4134 
L 525 4134 
L 525 4666 
z
" transform="scale(0.015625)"/>
       </defs>
       <use xlink:href="#DejaVuSans-37"/>
       <use xlink:href="#DejaVuSans-2e" x="63.623047"/>
       <use xlink:href="#DejaVuSans-35" x="95.410156"/>
      </g>
     </g>
    </g>
    <g id="xtick_5">
     <g id="line2d_5">
      <g>
       <use xlink:href="#m203e38f6d3" x="216" y="318.04" style="stroke: #000000; stroke-width: 0.8"/>
      </g>
     </g>
     <g id="text_5">
      <!-- 10.0 -->
      <g transform="translate(204.867188 332.638438) scale(0.1 -0.1)">
       <defs>
        <path id="DejaVuSans-31" d="M 794 531 
L 1825 531 
L 1825 4091 
L 703 3866 
L 703 4441 
L 1819 4666 
L 2450 4666 
L 2450 531 
L 3481 531 
L 3481 0 
L 794 0 
L 794 531 
z
" transform="scale(0.015625)"/>
       </defs>
       <use xlink:href="#DejaVuSans-31"/>
       <use xlink:href="#DejaVuSans-30" x="63.623047"/>
       <use xlink:href="#DejaVuSans-2e" x="127.246094"/>
       <use xlink:href="#DejaVuSans-30" x="159.033203"/>
      </g>
     </g>
    </g>
    <g id="xtick_6">
     <g id="line2d_6">
      <g>
       <use xlink:href="#m203e38f6d3" x="256.45" y="318.04" style="stroke: #000000; stroke-width: 0.8"/>
      </g>
     </g>
     <g id="text_6">
      <!-- 12.5 -->
      <g transform="translate(245.317188 332.638438) scale(0.1 -0.1)">
       <use xlink:href="#DejaVuSans-31"/>
       <use xlink:href="#DejaVuSans-32" x="63.623047"/>
       <use xlink:href="#DejaVuSans-2e" x="127.246094"/>
       <use xlink:href="#DejaVuSans-35" x="159.033203"/>
      </g>
     </g>
    </g>
    <g id="xtick_7">
     <g id="line2d_7">
      <g>
       <use xlink:href="#m203e38f6d3" x="296.9" y="318.04" style="stroke: #000000; stroke-width: 0.8"/>
      </g>
     </g>
     <g id="text_7">
      <!-- 15.0 -->
      <g transform="translate(285.767188 332.638438) scale(0.1 -0.1)">
       <use xlink:href="#DejaVuSans-31"/>
       <use xlink:href="#DejaVuSans-35" x="63.623047"/>
       <use xlink:href="#DejaVuSans-2e" x="127.246094"/>
       <use xlink:href="#DejaVuSans-30" x="159.033203"/>
      </g>
     </g>
    </g>
    <g id="xtick_8">
     <g id="line2d_8">
      <g>
       <use xlink:href="#m203e38f6d3" x="337.35" y="318.04" style="stroke: #000000; stroke-width: 0.8"/>
      </g>
     </g>
     <g id="text_8">
      <!-- 17.5 -->
      <g transform="translate(326.217188 332.638438) scale(0.1 -0.1)">
       <use xlink:href="#DejaVuSans-31"/>
       <use xlink:href="#DejaVuSans-37" x="63.623047"/>
       <use xlink:href="#DejaVuSans-2e" x="127.246094"/>
       <use xlink:href="#DejaVuSans-35" x="159.033203"/>
      </g>
     </g>
    </g>
    <g id="xtick_9">
     <g id="line2d_9">
      <g>
       <use xlink:href="#m203e38f6d3" x="377.8" y="318.04" style="stroke: #000000; stroke-width: 0.8"/>
      </g>
     </g>
     <g id="text_9">
      <!-- 20.0 -->
      <g transform="translate(366.667188 332.638438) scale(0.1 -0.1)">
       <use xlink:href="#DejaVuSans-32"/>
       <use xlink:href="#DejaVuSans-30" x="63.623047"/>
       <use xlink:href="#DejaVuSans-2e" x="127.246094"/>
       <use xlink:href="#DejaVuSans-30" x="159.033203"/>
      </g>
     </g>
    </g>
    <g id="text_10">
     <!-- Time After Bipolar Spindle Formation (min) -->
     <g transform="translate(109.146094 346.316563) scale(0.1 -0.1)">
      <defs>
       <path id="DejaVuSans-54" d="M -19 4666 
L 3928 4666 
L 3928 4134 
L 2272 4134 
L 2272 0 
L 1638 0 
L 1638 4134 
L -19 4134 
L -19 4666 
z
" transform="scale(0.015625)"/>
       <path id="DejaVuSans-69" d="M 603 3500 
L 1178 3500 
L 1178 0 
L 603 0 
L 603 3500 
z
M 603 4863 
L 1178 4863 
L 1178 4134 
L 603 4134 
L 603 4863 
z
" transform="scale(0.015625)"/>
       <path id="DejaVuSans-6d" d="M 3328 2828 
Q 3544 3216 3844 3400 
Q 4144 3584 4550 3584 
Q 5097 3584 5394 3201 
Q 5691 2819 5691 2113 
L 5691 0 
L 5113 0 
L 5113 2094 
Q 5113 2597 4934 2840 
Q 4756 3084 4391 3084 
Q 3944 3084 3684 2787 
Q 3425 2491 3425 1978 
L 3425 0 
L 2847 0 
L 2847 2094 
Q 2847 2600 2669 2842 
Q 2491 3084 2119 3084 
Q 1678 3084 1418 2786 
Q 1159 2488 1159 1978 
L 1159 0 
L 581 0 
L 581 3500 
L 1159 3500 
L 1159 2956 
Q 1356 3278 1631 3431 
Q 1906 3584 2284 3584 
Q 2666 3584 2933 3390 
Q 3200 3197 3328 2828 
z
" transform="scale(0.015625)"/>
       <path id="DejaVuSans-65" d="M 3597 1894 
L 3597 1613 
L 953 1613 
Q 991 1019 1311 708 
Q 1631 397 2203 397 
Q 2534 397 2845 478 
Q 3156 559 3463 722 
L 3463 178 
Q 3153 47 2828 -22 
Q 2503 -91 2169 -91 
Q 1331 -91 842 396 
Q 353 884 353 1716 
Q 353 2575 817 3079 
Q 1281 3584 2069 3584 
Q 2775 3584 3186 3129 
Q 3597 2675 3597 1894 
z
M 3022 2063 
Q 3016 2534 2758 2815 
Q 2500 3097 2075 3097 
Q 1594 3097 1305 2825 
Q 1016 2553 972 2059 
L 3022 2063 
z
" transform="scale(0.015625)"/>
       <path id="DejaVuSans-20" transform="scale(0.015625)"/>
       <path id="DejaVuSans-41" d="M 2188 4044 
L 1331 1722 
L 3047 1722 
L 2188 4044 
z
M 1831 4666 
L 2547 4666 
L 4325 0 
L 3669 0 
L 3244 1197 
L 1141 1197 
L 716 0 
L 50 0 
L 1831 4666 
z
" transform="scale(0.015625)"/>
       <path id="DejaVuSans-66" d="M 2375 4863 
L 2375 4384 
L 1825 4384 
Q 1516 4384 1395 4259 
Q 1275 4134 1275 3809 
L 1275 3500 
L 2222 3500 
L 2222 3053 
L 1275 3053 
L 1275 0 
L 697 0 
L 697 3053 
L 147 3053 
L 147 3500 
L 697 3500 
L 697 3744 
Q 697 4328 969 4595 
Q 1241 4863 1831 4863 
L 2375 4863 
z
" transform="scale(0.015625)"/>
       <path id="DejaVuSans-74" d="M 1172 4494 
L 1172 3500 
L 2356 3500 
L 2356 3053 
L 1172 3053 
L 1172 1153 
Q 1172 725 1289 603 
Q 1406 481 1766 481 
L 2356 481 
L 2356 0 
L 1766 0 
Q 1100 0 847 248 
Q 594 497 594 1153 
L 594 3053 
L 172 3053 
L 172 3500 
L 594 3500 
L 594 4494 
L 1172 4494 
z
" transform="scale(0.015625)"/>
       <path id="DejaVuSans-72" d="M 2631 2963 
Q 2534 3019 2420 3045 
Q 2306 3072 2169 3072 
Q 1681 3072 1420 2755 
Q 1159 2438 1159 1844 
L 1159 0 
L 581 0 
L 581 3500 
L 1159 3500 
L 1159 2956 
Q 1341 3275 1631 3429 
Q 1922 3584 2338 3584 
Q 2397 3584 2469 3576 
Q 2541 3569 2628 3553 
L 2631 2963 
z
" transform="scale(0.015625)"/>
       <path id="DejaVuSans-42" d="M 1259 2228 
L 1259 519 
L 2272 519 
Q 2781 519 3026 730 
Q 3272 941 3272 1375 
Q 3272 1813 3026 2020 
Q 2781 2228 2272 2228 
L 1259 2228 
z
M 1259 4147 
L 1259 2741 
L 2194 2741 
Q 2656 2741 2882 2914 
Q 3109 3088 3109 3444 
Q 3109 3797 2882 3972 
Q 2656 4147 2194 4147 
L 1259 4147 
z
M 628 4666 
L 2241 4666 
Q 2963 4666 3353 4366 
Q 3744 4066 3744 3513 
Q 3744 3084 3544 2831 
Q 3344 2578 2956 2516 
Q 3422 2416 3680 2098 
Q 3938 1781 3938 1306 
Q 3938 681 3513 340 
Q 3088 0 2303 0 
L 628 0 
L 628 4666 
z
" transform="scale(0.015625)"/>
       <path id="DejaVuSans-70" d="M 1159 525 
L 1159 -1331 
L 581 -1331 
L 581 3500 
L 1159 3500 
L 1159 2969 
Q 1341 3281 1617 3432 
Q 1894 3584 2278 3584 
Q 2916 3584 3314 3078 
Q 3713 2572 3713 1747 
Q 3713 922 3314 415 
Q 2916 -91 2278 -91 
Q 1894 -91 1617 61 
Q 1341 213 1159 525 
z
M 3116 1747 
Q 3116 2381 2855 2742 
Q 2594 3103 2138 3103 
Q 1681 3103 1420 2742 
Q 1159 2381 1159 1747 
Q 1159 1113 1420 752 
Q 1681 391 2138 391 
Q 2594 391 2855 752 
Q 3116 1113 3116 1747 
z
" transform="scale(0.015625)"/>
       <path id="DejaVuSans-6f" d="M 1959 3097 
Q 1497 3097 1228 2736 
Q 959 2375 959 1747 
Q 959 1119 1226 758 
Q 1494 397 1959 397 
Q 2419 397 2687 759 
Q 2956 1122 2956 1747 
Q 2956 2369 2687 2733 
Q 2419 3097 1959 3097 
z
M 1959 3584 
Q 2709 3584 3137 3096 
Q 3566 2609 3566 1747 
Q 3566 888 3137 398 
Q 2709 -91 1959 -91 
Q 1206 -91 779 398 
Q 353 888 353 1747 
Q 353 2609 779 3096 
Q 1206 3584 1959 3584 
z
" transform="scale(0.015625)"/>
       <path id="DejaVuSans-6c" d="M 603 4863 
L 1178 4863 
L 1178 0 
L 603 0 
L 603 4863 
z
" transform="scale(0.015625)"/>
       <path id="DejaVuSans-61" d="M 2194 1759 
Q 1497 1759 1228 1600 
Q 959 1441 959 1056 
Q 959 750 1161 570 
Q 1363 391 1709 391 
Q 2188 391 2477 730 
Q 2766 1069 2766 1631 
L 2766 1759 
L 2194 1759 
z
M 3341 1997 
L 3341 0 
L 2766 0 
L 2766 531 
Q 2569 213 2275 61 
Q 1981 -91 1556 -91 
Q 1019 -91 701 211 
Q 384 513 384 1019 
Q 384 1609 779 1909 
Q 1175 2209 1959 2209 
L 2766 2209 
L 2766 2266 
Q 2766 2663 2505 2880 
Q 2244 3097 1772 3097 
Q 1472 3097 1187 3025 
Q 903 2953 641 2809 
L 641 3341 
Q 956 3463 1253 3523 
Q 1550 3584 1831 3584 
Q 2591 3584 2966 3190 
Q 3341 2797 3341 1997 
z
" transform="scale(0.015625)"/>
       <path id="DejaVuSans-53" d="M 3425 4513 
L 3425 3897 
Q 3066 4069 2747 4153 
Q 2428 4238 2131 4238 
Q 1616 4238 1336 4038 
Q 1056 3838 1056 3469 
Q 1056 3159 1242 3001 
Q 1428 2844 1947 2747 
L 2328 2669 
Q 3034 2534 3370 2195 
Q 3706 1856 3706 1288 
Q 3706 609 3251 259 
Q 2797 -91 1919 -91 
Q 1588 -91 1214 -16 
Q 841 59 441 206 
L 441 856 
Q 825 641 1194 531 
Q 1563 422 1919 422 
Q 2459 422 2753 634 
Q 3047 847 3047 1241 
Q 3047 1584 2836 1778 
Q 2625 1972 2144 2069 
L 1759 2144 
Q 1053 2284 737 2584 
Q 422 2884 422 3419 
Q 422 4038 858 4394 
Q 1294 4750 2059 4750 
Q 2388 4750 2728 4690 
Q 3069 4631 3425 4513 
z
" transform="scale(0.015625)"/>
       <path id="DejaVuSans-6e" d="M 3513 2113 
L 3513 0 
L 2938 0 
L 2938 2094 
Q 2938 2591 2744 2837 
Q 2550 3084 2163 3084 
Q 1697 3084 1428 2787 
Q 1159 2491 1159 1978 
L 1159 0 
L 581 0 
L 581 3500 
L 1159 3500 
L 1159 2956 
Q 1366 3272 1645 3428 
Q 1925 3584 2291 3584 
Q 2894 3584 3203 3211 
Q 3513 2838 3513 2113 
z
" transform="scale(0.015625)"/>
       <path id="DejaVuSans-64" d="M 2906 2969 
L 2906 4863 
L 3481 4863 
L 3481 0 
L 2906 0 
L 2906 525 
Q 2725 213 2448 61 
Q 2172 -91 1784 -91 
Q 1150 -91 751 415 
Q 353 922 353 1747 
Q 353 2572 751 3078 
Q 1150 3584 1784 3584 
Q 2172 3584 2448 3432 
Q 2725 3281 2906 2969 
z
M 947 1747 
Q 947 1113 1208 752 
Q 1469 391 1925 391 
Q 2381 391 2643 752 
Q 2906 1113 2906 1747 
Q 2906 2381 2643 2742 
Q 2381 3103 1925 3103 
Q 1469 3103 1208 2742 
Q 947 2381 947 1747 
z
" transform="scale(0.015625)"/>
       <path id="DejaVuSans-46" d="M 628 4666 
L 3309 4666 
L 3309 4134 
L 1259 4134 
L 1259 2759 
L 3109 2759 
L 3109 2228 
L 1259 2228 
L 1259 0 
L 628 0 
L 628 4666 
z
" transform="scale(0.015625)"/>
       <path id="DejaVuSans-28" d="M 1984 4856 
Q 1566 4138 1362 3434 
Q 1159 2731 1159 2009 
Q 1159 1288 1364 580 
Q 1569 -128 1984 -844 
L 1484 -844 
Q 1016 -109 783 600 
Q 550 1309 550 2009 
Q 550 2706 781 3412 
Q 1013 4119 1484 4856 
L 1984 4856 
z
" transform="scale(0.015625)"/>
       <path id="DejaVuSans-29" d="M 513 4856 
L 1013 4856 
Q 1481 4119 1714 3412 
Q 1947 2706 1947 2009 
Q 1947 1309 1714 600 
Q 1481 -109 1013 -844 
L 513 -844 
Q 928 -128 1133 580 
Q 1338 1288 1338 2009 
Q 1338 2731 1133 3434 
Q 928 4138 513 4856 
z
" transform="scale(0.015625)"/>
      </defs>
      <use xlink:href="#DejaVuSans-54"/>
      <use xlink:href="#DejaVuSans-69" x="57.958984"/>
      <use xlink:href="#DejaVuSans-6d" x="85.742188"/>
      <use xlink:href="#DejaVuSans-65" x="183.154297"/>
      <use xlink:href="#DejaVuSans-20" x="244.677734"/>
      <use xlink:href="#DejaVuSans-41" x="276.464844"/>
      <use xlink:href="#DejaVuSans-66" x="341.248047"/>
      <use xlink:href="#DejaVuSans-74" x="374.703125"/>
      <use xlink:href="#DejaVuSans-65" x="413.912109"/>
      <use xlink:href="#DejaVuSans-72" x="475.435547"/>
      <use xlink:href="#DejaVuSans-20" x="516.548828"/>
      <use xlink:href="#DejaVuSans-42" x="548.335938"/>
      <use xlink:href="#DejaVuSans-69" x="616.939453"/>
      <use xlink:href="#DejaVuSans-70" x="644.722656"/>
      <use xlink:href="#DejaVuSans-6f" x="708.199219"/>
      <use xlink:href="#DejaVuSans-6c" x="769.380859"/>
      <use xlink:href="#DejaVuSans-61" x="797.164062"/>
      <use xlink:href="#DejaVuSans-72" x="858.443359"/>
      <use xlink:href="#DejaVuSans-20" x="899.556641"/>
      <use xlink:href="#DejaVuSans-53" x="931.34375"/>
      <use xlink:href="#DejaVuSans-70" x="994.820312"/>
      <use xlink:href="#DejaVuSans-69" x="1058.296875"/>
      <use xlink:href="#DejaVuSans-6e" x="1086.080078"/>
      <use xlink:href="#DejaVuSans-64" x="1149.458984"/>
      <use xlink:href="#DejaVuSans-6c" x="1212.935547"/>
      <use xlink:href="#DejaVuSans-65" x="1240.71875"/>
      <use xlink:href="#DejaVuSans-20" x="1302.242188"/>
      <use xlink:href="#DejaVuSans-46" x="1334.029297"/>
      <use xlink:href="#DejaVuSans-6f" x="1387.923828"/>
      <use xlink:href="#DejaVuSans-72" x="1449.105469"/>
      <use xlink:href="#DejaVuSans-6d" x="1488.46875"/>
      <use xlink:href="#DejaVuSans-61" x="1585.880859"/>
      <use xlink:href="#DejaVuSans-74" x="1647.160156"/>
      <use xlink:href="#DejaVuSans-69" x="1686.369141"/>
      <use xlink:href="#DejaVuSans-6f" x="1714.152344"/>
      <use xlink:href="#DejaVuSans-6e" x="1775.333984"/>
      <use xlink:href="#DejaVuSans-20" x="1838.712891"/>
      <use xlink:href="#DejaVuSans-28" x="1870.5"/>
      <use xlink:href="#DejaVuSans-6d" x="1909.513672"/>
      <use xlink:href="#DejaVuSans-69" x="2006.925781"/>
      <use xlink:href="#DejaVuSans-6e" x="2034.708984"/>
      <use xlink:href="#DejaVuSans-29" x="2098.087891"/>
     </g>
    </g>
   </g>
   <g id="matplotlib.axis_2">
    <g id="ytick_1">
     <g id="line2d_10">
      <defs>
       <path id="m8a278e5c46" d="M 0 0 
L -3.5 0 
" style="stroke: #000000; stroke-width: 0.8"/>
      </defs>
      <g>
       <use xlink:href="#m8a278e5c46" x="54.2" y="318.04" style="stroke: #000000; stroke-width: 0.8"/>
      </g>
     </g>
     <g id="text_11">
      <!-- 0.00 -->
      <g transform="translate(24.934375 321.839219) scale(0.1 -0.1)">
       <use xlink:href="#DejaVuSans-30"/>
       <use xlink:href="#DejaVuSans-2e" x="63.623047"/>
       <use xlink:href="#DejaVuSans-30" x="95.410156"/>
       <use xlink:href="#DejaVuSans-30" x="159.033203"/>
      </g>
     </g>
    </g>
    <g id="ytick_2">
     <g id="line2d_11">
      <g>
       <use xlink:href="#m8a278e5c46" x="54.2" y="279.026667" style="stroke: #000000; stroke-width: 0.8"/>
      </g>
     </g>
     <g id="text_12">
      <!-- 0.02 -->
      <g transform="translate(24.934375 282.825885) scale(0.1 -0.1)">
       <use xlink:href="#DejaVuSans-30"/>
       <use xlink:href="#DejaVuSans-2e" x="63.623047"/>
       <use xlink:href="#DejaVuSans-30" x="95.410156"/>
       <use xlink:href="#DejaVuSans-32" x="159.033203"/>
      </g>
     </g>
    </g>
    <g id="ytick_3">
     <g id="line2d_12">
      <g>
       <use xlink:href="#m8a278e5c46" x="54.2" y="240.013333" style="stroke: #000000; stroke-width: 0.8"/>
      </g>
     </g>
     <g id="text_13">
      <!-- 0.04 -->
      <g transform="translate(24.934375 243.812552) scale(0.1 -0.1)">
       <defs>
        <path id="DejaVuSans-34" d="M 2419 4116 
L 825 1625 
L 2419 1625 
L 2419 4116 
z
M 2253 4666 
L 3047 4666 
L 3047 1625 
L 3713 1625 
L 3713 1100 
L 3047 1100 
L 3047 0 
L 2419 0 
L 2419 1100 
L 313 1100 
L 313 1709 
L 2253 4666 
z
" transform="scale(0.015625)"/>
       </defs>
       <use xlink:href="#DejaVuSans-30"/>
       <use xlink:href="#DejaVuSans-2e" x="63.623047"/>
       <use xlink:href="#DejaVuSans-30" x="95.410156"/>
       <use xlink:href="#DejaVuSans-34" x="159.033203"/>
      </g>
     </g>
    </g>
    <g id="ytick_4">
     <g id="line2d_13">
      <g>
       <use xlink:href="#m8a278e5c46" x="54.2" y="201" style="stroke: #000000; stroke-width: 0.8"/>
      </g>
     </g>
     <g id="text_14">
      <!-- 0.06 -->
      <g transform="translate(24.934375 204.799219) scale(0.1 -0.1)">
       <defs>
        <path id="DejaVuSans-36" d="M 2113 2584 
Q 1688 2584 1439 2293 
Q 1191 2003 1191 1497 
Q 1191 994 1439 701 
Q 1688 409 2113 409 
Q 2538 409 2786 701 
Q 3034 994 3034 1497 
Q 3034 2003 2786 2293 
Q 2538 2584 2113 2584 
z
M 3366 4563 
L 3366 3988 
Q 3128 4100 2886 4159 
Q 2644 4219 2406 4219 
Q 1781 4219 1451 3797 
Q 1122 3375 1075 2522 
Q 1259 2794 1537 2939 
Q 1816 3084 2150 3084 
Q 2853 3084 3261 2657 
Q 3669 2231 3669 1497 
Q 3669 778 3244 343 
Q 2819 -91 2113 -91 
Q 1303 -91 875 529 
Q 447 1150 447 2328 
Q 447 3434 972 4092 
Q 1497 4750 2381 4750 
Q 2619 4750 2861 4703 
Q 3103 4656 3366 4563 
z
" transform="scale(0.015625)"/>
       </defs>
       <use xlink:href="#DejaVuSans-30"/>
       <use xlink:href="#DejaVuSans-2e" x="63.623047"/>
       <use xlink:href="#DejaVuSans-30" x="95.410156"/>
       <use xlink:href="#DejaVuSans-36" x="159.033203"/>
      </g>
     </g>
    </g>
    <g id="ytick_5">
     <g id="line2d_14">
      <g>
       <use xlink:href="#m8a278e5c46" x="54.2" y="161.986667" style="stroke: #000000; stroke-width: 0.8"/>
      </g>
     </g>
     <g id="text_15">
      <!-- 0.08 -->
      <g transform="translate(24.934375 165.785885) scale(0.1 -0.1)">
       <defs>
        <path id="DejaVuSans-38" d="M 2034 2216 
Q 1584 2216 1326 1975 
Q 1069 1734 1069 1313 
Q 1069 891 1326 650 
Q 1584 409 2034 409 
Q 2484 409 2743 651 
Q 3003 894 3003 1313 
Q 3003 1734 2745 1975 
Q 2488 2216 2034 2216 
z
M 1403 2484 
Q 997 2584 770 2862 
Q 544 3141 544 3541 
Q 544 4100 942 4425 
Q 1341 4750 2034 4750 
Q 2731 4750 3128 4425 
Q 3525 4100 3525 3541 
Q 3525 3141 3298 2862 
Q 3072 2584 2669 2484 
Q 3125 2378 3379 2068 
Q 3634 1759 3634 1313 
Q 3634 634 3220 271 
Q 2806 -91 2034 -91 
Q 1263 -91 848 271 
Q 434 634 434 1313 
Q 434 1759 690 2068 
Q 947 2378 1403 2484 
z
M 1172 3481 
Q 1172 3119 1398 2916 
Q 1625 2713 2034 2713 
Q 2441 2713 2670 2916 
Q 2900 3119 2900 3481 
Q 2900 3844 2670 4047 
Q 2441 4250 2034 4250 
Q 1625 4250 1398 4047 
Q 1172 3844 1172 3481 
z
" transform="scale(0.015625)"/>
       </defs>
       <use xlink:href="#DejaVuSans-30"/>
       <use xlink:href="#DejaVuSans-2e" x="63.623047"/>
       <use xlink:href="#DejaVuSans-30" x="95.410156"/>
       <use xlink:href="#DejaVuSans-38" x="159.033203"/>
      </g>
     </g>
    </g>
    <g id="ytick_6">
     <g id="line2d_15">
      <g>
       <use xlink:href="#m8a278e5c46" x="54.2" y="122.973333" style="stroke: #000000; stroke-width: 0.8"/>
      </g>
     </g>
     <g id="text_16">
      <!-- 0.10 -->
      <g transform="translate(24.934375 126.772552) scale(0.1 -0.1)">
       <use xlink:href="#DejaVuSans-30"/>
       <use xlink:href="#DejaVuSans-2e" x="63.623047"/>
       <use xlink:href="#DejaVuSans-31" x="95.410156"/>
       <use xlink:href="#DejaVuSans-30" x="159.033203"/>
      </g>
     </g>
    </g>
    <g id="ytick_7">
     <g id="line2d_16">
      <g>
       <use xlink:href="#m8a278e5c46" x="54.2" y="83.96" style="stroke: #000000; stroke-width: 0.8"/>
      </g>
     </g>
     <g id="text_17">
      <!-- 0.12 -->
      <g transform="translate(24.934375 87.759219) scale(0.1 -0.1)">
       <use xlink:href="#DejaVuSans-30"/>
       <use xlink:href="#DejaVuSans-2e" x="63.623047"/>
       <use xlink:href="#DejaVuSans-31" x="95.410156"/>
       <use xlink:href="#DejaVuSans-32" x="159.033203"/>
      </g>
     </g>
    </g>
    <g id="ytick_8">
     <g id="line2d_17">
      <g>
       <use xlink:href="#m8a278e5c46" x="54.2" y="44.946667" style="stroke: #000000; stroke-width: 0.8"/>
      </g>
     </g>
     <g id="text_18">
      <!-- 0.14 -->
      <g transform="translate(24.934375 48.745885) scale(0.1 -0.1)">
       <use xlink:href="#DejaVuSans-30"/>
       <use xlink:href="#DejaVuSans-2e" x="63.623047"/>
       <use xlink:href="#DejaVuSans-31" x="95.410156"/>
       <use xlink:href="#DejaVuSans-34" x="159.033203"/>
      </g>
     </g>
    </g>
    <g id="text_19">
     <!-- Spindle Length Dispersion -->
     <g transform="translate(18.854687 237.082969) rotate(-90) scale(0.1 -0.1)">
      <defs>
       <path id="DejaVuSans-4c" d="M 628 4666 
L 1259 4666 
L 1259 531 
L 3531 531 
L 3531 0 
L 628 0 
L 628 4666 
z
" transform="scale(0.015625)"/>
       <path id="DejaVuSans-67" d="M 2906 1791 
Q 2906 2416 2648 2759 
Q 2391 3103 1925 3103 
Q 1463 3103 1205 2759 
Q 947 2416 947 1791 
Q 947 1169 1205 825 
Q 1463 481 1925 481 
Q 2391 481 2648 825 
Q 2906 1169 2906 1791 
z
M 3481 434 
Q 3481 -459 3084 -895 
Q 2688 -1331 1869 -1331 
Q 1566 -1331 1297 -1286 
Q 1028 -1241 775 -1147 
L 775 -588 
Q 1028 -725 1275 -790 
Q 1522 -856 1778 -856 
Q 2344 -856 2625 -561 
Q 2906 -266 2906 331 
L 2906 616 
Q 2728 306 2450 153 
Q 2172 0 1784 0 
Q 1141 0 747 490 
Q 353 981 353 1791 
Q 353 2603 747 3093 
Q 1141 3584 1784 3584 
Q 2172 3584 2450 3431 
Q 2728 3278 2906 2969 
L 2906 3500 
L 3481 3500 
L 3481 434 
z
" transform="scale(0.015625)"/>
       <path id="DejaVuSans-68" d="M 3513 2113 
L 3513 0 
L 2938 0 
L 2938 2094 
Q 2938 2591 2744 2837 
Q 2550 3084 2163 3084 
Q 1697 3084 1428 2787 
Q 1159 2491 1159 1978 
L 1159 0 
L 581 0 
L 581 4863 
L 1159 4863 
L 1159 2956 
Q 1366 3272 1645 3428 
Q 1925 3584 2291 3584 
Q 2894 3584 3203 3211 
Q 3513 2838 3513 2113 
z
" transform="scale(0.015625)"/>
       <path id="DejaVuSans-44" d="M 1259 4147 
L 1259 519 
L 2022 519 
Q 2988 519 3436 956 
Q 3884 1394 3884 2338 
Q 3884 3275 3436 3711 
Q 2988 4147 2022 4147 
L 1259 4147 
z
M 628 4666 
L 1925 4666 
Q 3281 4666 3915 4102 
Q 4550 3538 4550 2338 
Q 4550 1131 3912 565 
Q 3275 0 1925 0 
L 628 0 
L 628 4666 
z
" transform="scale(0.015625)"/>
       <path id="DejaVuSans-73" d="M 2834 3397 
L 2834 2853 
Q 2591 2978 2328 3040 
Q 2066 3103 1784 3103 
Q 1356 3103 1142 2972 
Q 928 2841 928 2578 
Q 928 2378 1081 2264 
Q 1234 2150 1697 2047 
L 1894 2003 
Q 2506 1872 2764 1633 
Q 3022 1394 3022 966 
Q 3022 478 2636 193 
Q 2250 -91 1575 -91 
Q 1294 -91 989 -36 
Q 684 19 347 128 
L 347 722 
Q 666 556 975 473 
Q 1284 391 1588 391 
Q 1994 391 2212 530 
Q 2431 669 2431 922 
Q 2431 1156 2273 1281 
Q 2116 1406 1581 1522 
L 1381 1569 
Q 847 1681 609 1914 
Q 372 2147 372 2553 
Q 372 3047 722 3315 
Q 1072 3584 1716 3584 
Q 2034 3584 2315 3537 
Q 2597 3491 2834 3397 
z
" transform="scale(0.015625)"/>
      </defs>
      <use xlink:href="#DejaVuSans-53"/>
      <use xlink:href="#DejaVuSans-70" x="63.476562"/>
      <use xlink:href="#DejaVuSans-69" x="126.953125"/>
      <use xlink:href="#DejaVuSans-6e" x="154.736328"/>
      <use xlink:href="#DejaVuSans-64" x="218.115234"/>
      <use xlink:href="#DejaVuSans-6c" x="281.591797"/>
      <use xlink:href="#DejaVuSans-65" x="309.375"/>
      <use xlink:href="#DejaVuSans-20" x="370.898438"/>
      <use xlink:href="#DejaVuSans-4c" x="402.685547"/>
      <use xlink:href="#DejaVuSans-65" x="456.648438"/>
      <use xlink:href="#DejaVuSans-6e" x="518.171875"/>
      <use xlink:href="#DejaVuSans-67" x="581.550781"/>
      <use xlink:href="#DejaVuSans-74" x="645.027344"/>
      <use xlink:href="#DejaVuSans-68" x="684.236328"/>
      <use xlink:href="#DejaVuSans-20" x="747.615234"/>
      <use xlink:href="#DejaVuSans-44" x="779.402344"/>
      <use xlink:href="#DejaVuSans-69" x="856.404297"/>
      <use xlink:href="#DejaVuSans-73" x="884.1875"/>
      <use xlink:href="#DejaVuSans-70" x="936.287109"/>
      <use xlink:href="#DejaVuSans-65" x="999.763672"/>
      <use xlink:href="#DejaVuSans-72" x="1061.287109"/>
      <use xlink:href="#DejaVuSans-73" x="1102.400391"/>
      <use xlink:href="#DejaVuSans-69" x="1154.5"/>
      <use xlink:href="#DejaVuSans-6f" x="1182.283203"/>
      <use xlink:href="#DejaVuSans-6e" x="1243.464844"/>
     </g>
    </g>
   </g>
   <g id="line2d_18">
    <path d="M 59.684746 192.402562 
L 65.169492 191.444996 
L 70.654237 154.545033 
L 76.138983 164.018097 
L 81.623729 170.268211 
L 87.108475 159.870706 
L 92.59322 156.809641 
L 98.077966 150.048401 
L 103.562712 157.983339 
L 109.047458 163.377569 
L 114.532203 163.98435 
L 120.016949 173.636523 
L 125.501695 191.343843 
L 130.986441 200.435206 
L 136.471186 196.770453 
L 141.955932 189.76485 
L 147.440678 198.531959 
L 152.925424 201.949341 
L 158.410169 208.291457 
L 163.894915 211.037668 
L 169.379661 209.574589 
L 174.864407 206.429312 
L 180.349153 197.596674 
L 185.833898 204.183985 
L 191.318644 210.357561 
L 196.80339 207.113363 
L 202.288136 196.203728 
L 207.772881 187.461683 
L 213.257627 185.931841 
L 218.742373 194.798709 
L 224.227119 188.092229 
L 229.711864 197.138847 
L 235.19661 202.052138 
L 240.681356 193.789183 
L 246.166102 190.60415 
L 251.650847 193.032148 
L 257.135593 194.79365 
L 262.620339 191.047531 
L 268.105085 207.235204 
L 273.589831 197.534352 
L 279.074576 211.632096 
L 284.559322 213.190649 
L 290.044068 203.795867 
L 295.528814 199.70824 
L 301.013559 234.123724 
L 306.498305 220.864708 
L 311.983051 201.82002 
L 317.467797 188.999882 
L 322.952542 193.949345 
L 328.437288 209.283236 
L 333.922034 201.724461 
L 339.40678 204.810328 
L 344.891525 223.889948 
L 350.376271 215.679523 
L 355.861017 204.236925 
L 361.345763 188.682695 
L 366.830508 222.82153 
L 372.315254 213.354964 
L 377.8 221.414377 
" clip-path="url(#p3d38010151)" style="fill: none; stroke: #ff7f0e; stroke-width: 1.5; stroke-linecap: square"/>
   </g>
   <g id="patch_3">
    <path d="M 54.2 318.04 
L 54.2 25.44 
" style="fill: none; stroke: #000000; stroke-width: 0.8; stroke-linejoin: miter; stroke-linecap: square"/>
   </g>
   <g id="patch_4">
    <path d="M 377.8 318.04 
L 377.8 25.44 
" style="fill: none; stroke: #000000; stroke-width: 0.8; stroke-linejoin: miter; stroke-linecap: square"/>
   </g>
   <g id="patch_5">
    <path d="M 54.2 318.04 
L 377.8 318.04 
" style="fill: none; stroke: #000000; stroke-width: 0.8; stroke-linejoin: miter; stroke-linecap: square"/>
   </g>
   <g id="patch_6">
    <path d="M 54.2 25.44 
L 377.8 25.44 
" style="fill: none; stroke: #000000; stroke-width: 0.8; stroke-linejoin: miter; stroke-linecap: square"/>
   </g>
  </g>
  <g id="axes_2">
   <g id="PolyCollection_2">
    <defs>
     <path id="mc9473e18f1" d="M 59.684746 -187.86248 
L 59.684746 -213.155691 
L 65.169492 -211.661005 
L 70.654237 -211.405672 
L 76.138983 -214.561756 
L 81.623729 -214.938118 
L 87.108475 -216.653511 
L 92.59322 -217.196694 
L 98.077966 -217.018934 
L 103.562712 -220.954468 
L 109.047458 -222.275107 
L 114.532203 -224.286704 
L 120.016949 -226.988188 
L 125.501695 -228.562964 
L 130.986441 -232.376477 
L 136.471186 -233.574923 
L 141.955932 -232.180379 
L 147.440678 -233.249274 
L 152.925424 -232.374025 
L 158.410169 -232.436302 
L 163.894915 -231.708796 
L 169.379661 -232.148257 
L 174.864407 -231.233239 
L 180.349153 -227.243894 
L 185.833898 -224.458757 
L 191.318644 -223.448203 
L 196.80339 -223.09968 
L 202.288136 -223.625307 
L 207.772881 -222.844649 
L 213.257627 -224.194796 
L 218.742373 -224.256437 
L 224.227119 -229.156256 
L 229.711864 -237.536584 
L 235.19661 -244.986919 
L 240.681356 -251.327156 
L 246.166102 -257.212213 
L 251.650847 -266.471737 
L 257.135593 -273.095523 
L 262.620339 -277.255534 
L 268.105085 -282.46564 
L 273.589831 -286.395783 
L 279.074576 -231.646318 
L 284.559322 -232.959108 
L 290.044068 -233.056147 
L 295.528814 -231.536493 
L 301.013559 -229.78768 
L 306.498305 -232.003472 
L 311.983051 -232.539367 
L 317.467797 -233.437607 
L 322.952542 -229.397054 
L 328.437288 -229.255398 
L 333.922034 -233.781685 
L 339.40678 -251.468825 
L 344.891525 -260.806735 
L 350.376271 -260.026817 
L 355.861017 -268.846855 
L 361.345763 -275.581394 
L 366.830508 -279.852905 
L 372.315254 -282.466312 
L 377.8 -283.83072 
L 377.8 -176.823608 
L 377.8 -176.823608 
L 372.315254 -177.260402 
L 366.830508 -179.794801 
L 361.345763 -183.126475 
L 355.861017 -180.932124 
L 350.376271 -179.494428 
L 344.891525 -178.459136 
L 339.40678 -183.487898 
L 333.922034 -189.376729 
L 328.437288 -198.715513 
L 322.952542 -201.042896 
L 317.467797 -206.60845 
L 311.983051 -205.556484 
L 306.498305 -201.772261 
L 301.013559 -197.880662 
L 295.528814 -201.588066 
L 290.044068 -203.135395 
L 284.559322 -203.756222 
L 279.074576 -204.811338 
L 273.589831 -180.063953 
L 268.105085 -183.599382 
L 262.620339 -187.248972 
L 257.135593 -191.42782 
L 251.650847 -196.657744 
L 246.166102 -199.362474 
L 240.681356 -201.878895 
L 235.19661 -203.23784 
L 229.711864 -202.772938 
L 224.227119 -201.157901 
L 218.742373 -201.218989 
L 213.257627 -202.365693 
L 207.772881 -203.581142 
L 202.288136 -203.710298 
L 196.80339 -202.999024 
L 191.318644 -202.472037 
L 185.833898 -203.411096 
L 180.349153 -204.461683 
L 174.864407 -206.214926 
L 169.379661 -207.132169 
L 163.894915 -209.774046 
L 158.410169 -210.074113 
L 152.925424 -209.808777 
L 147.440678 -210.123799 
L 141.955932 -207.63709 
L 136.471186 -207.981487 
L 130.986441 -208.846714 
L 125.501695 -209.122398 
L 120.016949 -208.808486 
L 114.532203 -205.853309 
L 109.047458 -203.653446 
L 103.562712 -204.134966 
L 98.077966 -201.101959 
L 92.59322 -201.693376 
L 87.108475 -199.316405 
L 81.623729 -196.315519 
L 76.138983 -194.609445 
L 70.654237 -192.907256 
L 65.169492 -191.639743 
L 59.684746 -187.86248 
z
" style="stroke: #1f77b4; stroke-opacity: 0.3"/>
    </defs>
    <g clip-path="url(#p3d38010151)">
     <use xlink:href="#mc9473e18f1" x="0" y="360" style="fill: #1f77b4; fill-opacity: 0.3; stroke: #1f77b4; stroke-opacity: 0.3"/>
    </g>
   </g>
   <g id="PolyCollection_3">
    <defs>
     <path id="mb5f3862bee" d="M 59.684746 -57.430281 
L 59.684746 -65.702621 
L 65.169492 -67.170748 
L 70.654237 -66.689442 
L 76.138983 -66.94013 
L 81.623729 -66.82198 
L 87.108475 -67.135148 
L 92.59322 -67.443521 
L 98.077966 -68.153475 
L 103.562712 -68.403732 
L 109.047458 -68.544018 
L 114.532203 -68.901722 
L 120.016949 -69.589259 
L 125.501695 -69.906213 
L 130.986441 -70.378938 
L 136.471186 -69.632362 
L 141.955932 -69.622226 
L 147.440678 -70.195153 
L 152.925424 -71.978882 
L 158.410169 -73.030207 
L 163.894915 -72.728844 
L 169.379661 -73.649919 
L 174.864407 -74.228435 
L 180.349153 -73.899262 
L 185.833898 -75.644183 
L 191.318644 -75.547226 
L 196.80339 -75.643222 
L 202.288136 -75.948151 
L 207.772881 -77.064872 
L 213.257627 -79.436228 
L 218.742373 -83.161344 
L 224.227119 -87.299619 
L 229.711864 -92.628616 
L 235.19661 -98.339916 
L 240.681356 -108.386464 
L 246.166102 -112.305162 
L 251.650847 -120.518973 
L 257.135593 -126.093274 
L 262.620339 -126.80092 
L 268.105085 -125.826983 
L 273.589831 -121.249713 
L 279.074576 -75.590383 
L 284.559322 -75.047734 
L 290.044068 -73.191401 
L 295.528814 -73.252476 
L 301.013559 -74.004841 
L 306.498305 -75.631528 
L 311.983051 -78.359917 
L 317.467797 -78.710477 
L 322.952542 -79.138166 
L 328.437288 -79.920485 
L 333.922034 -79.850528 
L 339.40678 -81.363363 
L 344.891525 -80.24492 
L 350.376271 -79.398249 
L 355.861017 -80.752394 
L 361.345763 -77.701572 
L 366.830508 -75.579838 
L 372.315254 -75.52968 
L 377.8 -76.465141 
L 377.8 -70.261297 
L 377.8 -70.261297 
L 372.315254 -69.725198 
L 366.830508 -69.901018 
L 361.345763 -70.724651 
L 355.861017 -72.743003 
L 350.376271 -71.634667 
L 344.891525 -71.872971 
L 339.40678 -73.35091 
L 333.922034 -72.292382 
L 328.437288 -71.39108 
L 322.952542 -70.499146 
L 317.467797 -71.027052 
L 311.983051 -71.06203 
L 306.498305 -69.514346 
L 301.013559 -69.204242 
L 295.528814 -68.381094 
L 290.044068 -68.538779 
L 284.559322 -69.871788 
L 279.074576 -69.934417 
L 273.589831 -46.96454 
L 268.105085 -45.114192 
L 262.620339 -47.276974 
L 257.135593 -47.502858 
L 251.650847 -52.269416 
L 246.166102 -56.449102 
L 240.681356 -58.201205 
L 235.19661 -62.677711 
L 229.711864 -65.468503 
L 224.227119 -65.777322 
L 218.742373 -67.66367 
L 213.257627 -68.619392 
L 207.772881 -68.634381 
L 202.288136 -68.328162 
L 196.80339 -68.412072 
L 191.318644 -68.808677 
L 185.833898 -68.416272 
L 180.349153 -67.778061 
L 174.864407 -68.215875 
L 169.379661 -67.772864 
L 163.894915 -66.777102 
L 158.410169 -66.804299 
L 152.925424 -65.980932 
L 147.440678 -65.186239 
L 141.955932 -64.658895 
L 136.471186 -64.741435 
L 130.986441 -65.250558 
L 125.501695 -64.704184 
L 120.016949 -64.309981 
L 114.532203 -64.210236 
L 109.047458 -63.856275 
L 103.562712 -63.4828 
L 98.077966 -63.019278 
L 92.59322 -62.6384 
L 87.108475 -61.955286 
L 81.623729 -61.107802 
L 76.138983 -60.712219 
L 70.654237 -59.740058 
L 65.169492 -59.317029 
L 59.684746 -57.430281 
z
" style="stroke: #2ca02c; stroke-opacity: 0.3"/>
    </defs>
    <g clip-path="url(#p3d38010151)">
     <use xlink:href="#mb5f3862bee" x="0" y="360" style="fill: #2ca02c; fill-opacity: 0.3; stroke: #2ca02c; stroke-opacity: 0.3"/>
    </g>
   </g>
   <g id="matplotlib.axis_3">
    <g id="ytick_9">
     <g id="line2d_19">
      <defs>
       <path id="ma21343b4ad" d="M 0 0 
L 3.5 0 
" style="stroke: #000000; stroke-width: 0.8"/>
      </defs>
      <g>
       <use xlink:href="#ma21343b4ad" x="377.8" y="318.04" style="stroke: #000000; stroke-width: 0.8"/>
      </g>
     </g>
     <g id="text_20">
      <!-- 0.00 -->
      <g transform="translate(384.8 321.839219) scale(0.1 -0.1)">
       <use xlink:href="#DejaVuSans-30"/>
       <use xlink:href="#DejaVuSans-2e" x="63.623047"/>
       <use xlink:href="#DejaVuSans-30" x="95.410156"/>
       <use xlink:href="#DejaVuSans-30" x="159.033203"/>
      </g>
     </g>
    </g>
    <g id="ytick_10">
     <g id="line2d_20">
      <g>
       <use xlink:href="#ma21343b4ad" x="377.8" y="281.465" style="stroke: #000000; stroke-width: 0.8"/>
      </g>
     </g>
     <g id="text_21">
      <!-- 0.25 -->
      <g transform="translate(384.8 285.264219) scale(0.1 -0.1)">
       <use xlink:href="#DejaVuSans-30"/>
       <use xlink:href="#DejaVuSans-2e" x="63.623047"/>
       <use xlink:href="#DejaVuSans-32" x="95.410156"/>
       <use xlink:href="#DejaVuSans-35" x="159.033203"/>
      </g>
     </g>
    </g>
    <g id="ytick_11">
     <g id="line2d_21">
      <g>
       <use xlink:href="#ma21343b4ad" x="377.8" y="244.89" style="stroke: #000000; stroke-width: 0.8"/>
      </g>
     </g>
     <g id="text_22">
      <!-- 0.50 -->
      <g transform="translate(384.8 248.689219) scale(0.1 -0.1)">
       <use xlink:href="#DejaVuSans-30"/>
       <use xlink:href="#DejaVuSans-2e" x="63.623047"/>
       <use xlink:href="#DejaVuSans-35" x="95.410156"/>
       <use xlink:href="#DejaVuSans-30" x="159.033203"/>
      </g>
     </g>
    </g>
    <g id="ytick_12">
     <g id="line2d_22">
      <g>
       <use xlink:href="#ma21343b4ad" x="377.8" y="208.315" style="stroke: #000000; stroke-width: 0.8"/>
      </g>
     </g>
     <g id="text_23">
      <!-- 0.75 -->
      <g transform="translate(384.8 212.114219) scale(0.1 -0.1)">
       <use xlink:href="#DejaVuSans-30"/>
       <use xlink:href="#DejaVuSans-2e" x="63.623047"/>
       <use xlink:href="#DejaVuSans-37" x="95.410156"/>
       <use xlink:href="#DejaVuSans-35" x="159.033203"/>
      </g>
     </g>
    </g>
    <g id="ytick_13">
     <g id="line2d_23">
      <g>
       <use xlink:href="#ma21343b4ad" x="377.8" y="171.74" style="stroke: #000000; stroke-width: 0.8"/>
      </g>
     </g>
     <g id="text_24">
      <!-- 1.00 -->
      <g transform="translate(384.8 175.539219) scale(0.1 -0.1)">
       <use xlink:href="#DejaVuSans-31"/>
       <use xlink:href="#DejaVuSans-2e" x="63.623047"/>
       <use xlink:href="#DejaVuSans-30" x="95.410156"/>
       <use xlink:href="#DejaVuSans-30" x="159.033203"/>
      </g>
     </g>
    </g>
    <g id="ytick_14">
     <g id="line2d_24">
      <g>
       <use xlink:href="#ma21343b4ad" x="377.8" y="135.165" style="stroke: #000000; stroke-width: 0.8"/>
      </g>
     </g>
     <g id="text_25">
      <!-- 1.25 -->
      <g transform="translate(384.8 138.964219) scale(0.1 -0.1)">
       <use xlink:href="#DejaVuSans-31"/>
       <use xlink:href="#DejaVuSans-2e" x="63.623047"/>
       <use xlink:href="#DejaVuSans-32" x="95.410156"/>
       <use xlink:href="#DejaVuSans-35" x="159.033203"/>
      </g>
     </g>
    </g>
    <g id="ytick_15">
     <g id="line2d_25">
      <g>
       <use xlink:href="#ma21343b4ad" x="377.8" y="98.59" style="stroke: #000000; stroke-width: 0.8"/>
      </g>
     </g>
     <g id="text_26">
      <!-- 1.50 -->
      <g transform="translate(384.8 102.389219) scale(0.1 -0.1)">
       <use xlink:href="#DejaVuSans-31"/>
       <use xlink:href="#DejaVuSans-2e" x="63.623047"/>
       <use xlink:href="#DejaVuSans-35" x="95.410156"/>
       <use xlink:href="#DejaVuSans-30" x="159.033203"/>
      </g>
     </g>
    </g>
    <g id="ytick_16">
     <g id="line2d_26">
      <g>
       <use xlink:href="#ma21343b4ad" x="377.8" y="62.015" style="stroke: #000000; stroke-width: 0.8"/>
      </g>
     </g>
     <g id="text_27">
      <!-- 1.75 -->
      <g transform="translate(384.8 65.814219) scale(0.1 -0.1)">
       <use xlink:href="#DejaVuSans-31"/>
       <use xlink:href="#DejaVuSans-2e" x="63.623047"/>
       <use xlink:href="#DejaVuSans-37" x="95.410156"/>
       <use xlink:href="#DejaVuSans-35" x="159.033203"/>
      </g>
     </g>
    </g>
    <g id="ytick_17">
     <g id="line2d_27">
      <g>
       <use xlink:href="#ma21343b4ad" x="377.8" y="25.44" style="stroke: #000000; stroke-width: 0.8"/>
      </g>
     </g>
     <g id="text_28">
      <!-- 2.00 -->
      <g transform="translate(384.8 29.239219) scale(0.1 -0.1)">
       <use xlink:href="#DejaVuSans-32"/>
       <use xlink:href="#DejaVuSans-2e" x="63.623047"/>
       <use xlink:href="#DejaVuSans-30" x="95.410156"/>
       <use xlink:href="#DejaVuSans-30" x="159.033203"/>
      </g>
     </g>
    </g>
    <g id="text_29">
     <!-- Mean Separation (micron) -->
     <g transform="translate(418.664062 236.80875) rotate(-90) scale(0.1 -0.1)">
      <defs>
       <path id="DejaVuSans-4d" d="M 628 4666 
L 1569 4666 
L 2759 1491 
L 3956 4666 
L 4897 4666 
L 4897 0 
L 4281 0 
L 4281 4097 
L 3078 897 
L 2444 897 
L 1241 4097 
L 1241 0 
L 628 0 
L 628 4666 
z
" transform="scale(0.015625)"/>
       <path id="DejaVuSans-63" d="M 3122 3366 
L 3122 2828 
Q 2878 2963 2633 3030 
Q 2388 3097 2138 3097 
Q 1578 3097 1268 2742 
Q 959 2388 959 1747 
Q 959 1106 1268 751 
Q 1578 397 2138 397 
Q 2388 397 2633 464 
Q 2878 531 3122 666 
L 3122 134 
Q 2881 22 2623 -34 
Q 2366 -91 2075 -91 
Q 1284 -91 818 406 
Q 353 903 353 1747 
Q 353 2603 823 3093 
Q 1294 3584 2113 3584 
Q 2378 3584 2631 3529 
Q 2884 3475 3122 3366 
z
" transform="scale(0.015625)"/>
      </defs>
      <use xlink:href="#DejaVuSans-4d"/>
      <use xlink:href="#DejaVuSans-65" x="86.279297"/>
      <use xlink:href="#DejaVuSans-61" x="147.802734"/>
      <use xlink:href="#DejaVuSans-6e" x="209.082031"/>
      <use xlink:href="#DejaVuSans-20" x="272.460938"/>
      <use xlink:href="#DejaVuSans-53" x="304.248047"/>
      <use xlink:href="#DejaVuSans-65" x="367.724609"/>
      <use xlink:href="#DejaVuSans-70" x="429.248047"/>
      <use xlink:href="#DejaVuSans-61" x="492.724609"/>
      <use xlink:href="#DejaVuSans-72" x="554.003906"/>
      <use xlink:href="#DejaVuSans-61" x="595.117188"/>
      <use xlink:href="#DejaVuSans-74" x="656.396484"/>
      <use xlink:href="#DejaVuSans-69" x="695.605469"/>
      <use xlink:href="#DejaVuSans-6f" x="723.388672"/>
      <use xlink:href="#DejaVuSans-6e" x="784.570312"/>
      <use xlink:href="#DejaVuSans-20" x="847.949219"/>
      <use xlink:href="#DejaVuSans-28" x="879.736328"/>
      <use xlink:href="#DejaVuSans-6d" x="918.75"/>
      <use xlink:href="#DejaVuSans-69" x="1016.162109"/>
      <use xlink:href="#DejaVuSans-63" x="1043.945312"/>
      <use xlink:href="#DejaVuSans-72" x="1098.925781"/>
      <use xlink:href="#DejaVuSans-6f" x="1137.789062"/>
      <use xlink:href="#DejaVuSans-6e" x="1198.970703"/>
      <use xlink:href="#DejaVuSans-29" x="1262.349609"/>
     </g>
    </g>
   </g>
   <g id="line2d_28">
    <path d="M 59.684746 159.490915 
L 65.169492 158.349626 
L 70.654237 157.843536 
L 76.138983 155.414399 
L 81.623729 154.373181 
L 87.108475 152.015042 
L 92.59322 150.554965 
L 98.077966 150.939553 
L 103.562712 147.455283 
L 109.047458 147.035724 
L 114.532203 144.929993 
L 120.016949 142.101663 
L 125.501695 141.157319 
L 130.986441 139.388404 
L 136.471186 139.221795 
L 141.955932 140.091266 
L 147.440678 138.313464 
L 152.925424 138.908599 
L 158.410169 138.744792 
L 163.894915 139.258579 
L 169.379661 140.359787 
L 174.864407 141.275917 
L 180.349153 144.147211 
L 185.833898 146.065073 
L 191.318644 147.03988 
L 196.80339 146.950648 
L 202.288136 146.332197 
L 207.772881 146.787104 
L 213.257627 146.719756 
L 218.742373 147.262287 
L 224.227119 144.842922 
L 229.711864 139.845239 
L 235.19661 135.887621 
L 240.681356 133.396975 
L 246.166102 131.712657 
L 251.650847 128.43526 
L 257.135593 127.738329 
L 262.620339 127.747747 
L 268.105085 126.967489 
L 273.589831 126.770132 
L 279.074576 141.771172 
L 284.559322 141.642335 
L 290.044068 141.904229 
L 295.528814 143.43772 
L 301.013559 146.165829 
L 306.498305 143.112133 
L 311.983051 140.952075 
L 317.467797 139.976971 
L 322.952542 144.780025 
L 328.437288 146.014544 
L 333.922034 148.420793 
L 339.40678 142.521639 
L 344.891525 140.367064 
L 350.376271 140.239377 
L 355.861017 135.110511 
L 361.345763 130.646066 
L 366.830508 130.176147 
L 372.315254 130.136643 
L 377.8 129.672836 
" clip-path="url(#p3d38010151)" style="fill: none; stroke: #1f77b4; stroke-width: 1.5; stroke-linecap: square"/>
   </g>
   <g id="line2d_29">
    <path d="M 59.684746 298.433549 
L 65.169492 296.756112 
L 70.654237 296.78525 
L 76.138983 296.173826 
L 81.623729 296.035109 
L 87.108475 295.454783 
L 92.59322 294.95904 
L 98.077966 294.413624 
L 103.562712 294.056734 
L 109.047458 293.799853 
L 114.532203 293.444021 
L 120.016949 293.05038 
L 125.501695 292.694801 
L 130.986441 292.185252 
L 136.471186 292.813102 
L 141.955932 292.859439 
L 147.440678 292.309304 
L 152.925424 291.020093 
L 158.410169 290.082747 
L 163.894915 290.247027 
L 169.379661 289.288608 
L 174.864407 288.777845 
L 180.349153 289.161339 
L 185.833898 287.969773 
L 191.318644 287.822049 
L 196.80339 287.972353 
L 202.288136 287.861844 
L 207.772881 287.150374 
L 213.257627 285.97219 
L 218.742373 284.587493 
L 224.227119 283.46153 
L 229.711864 280.951441 
L 235.19661 279.491187 
L 240.681356 276.706165 
L 246.166102 275.622868 
L 251.650847 273.605806 
L 257.135593 273.201934 
L 262.620339 272.961053 
L 268.105085 274.529412 
L 273.589831 275.892873 
L 279.074576 287.2376 
L 284.559322 287.540239 
L 290.044068 289.13491 
L 295.528814 289.183215 
L 301.013559 288.395458 
L 306.498305 287.427063 
L 311.983051 285.289027 
L 317.467797 285.131235 
L 322.952542 285.181344 
L 328.437288 284.344218 
L 333.922034 283.928545 
L 339.40678 282.642864 
L 344.891525 283.941054 
L 350.376271 284.483542 
L 355.861017 283.252301 
L 361.345763 285.786889 
L 366.830508 287.259572 
L 372.315254 287.372561 
L 377.8 286.636781 
" clip-path="url(#p3d38010151)" style="fill: none; stroke: #2ca02c; stroke-width: 1.5; stroke-linecap: square"/>
   </g>
   <g id="patch_7">
    <path d="M 54.2 318.04 
L 54.2 25.44 
" style="fill: none; stroke: #000000; stroke-width: 0.8; stroke-linejoin: miter; stroke-linecap: square"/>
   </g>
   <g id="patch_8">
    <path d="M 377.8 318.04 
L 377.8 25.44 
" style="fill: none; stroke: #000000; stroke-width: 0.8; stroke-linejoin: miter; stroke-linecap: square"/>
   </g>
   <g id="patch_9">
    <path d="M 54.2 318.04 
L 377.8 318.04 
" style="fill: none; stroke: #000000; stroke-width: 0.8; stroke-linejoin: miter; stroke-linecap: square"/>
   </g>
   <g id="patch_10">
    <path d="M 54.2 25.44 
L 377.8 25.44 
" style="fill: none; stroke: #000000; stroke-width: 0.8; stroke-linejoin: miter; stroke-linecap: square"/>
   </g>
   <g id="text_30">
    <!-- Khalid Data Only: Ase17A Y445D (n=51) -->
    <g transform="translate(94.707188 19.44) scale(0.12 -0.12)">
     <defs>
      <path id="DejaVuSans-4b" d="M 628 4666 
L 1259 4666 
L 1259 2694 
L 3353 4666 
L 4166 4666 
L 1850 2491 
L 4331 0 
L 3500 0 
L 1259 2247 
L 1259 0 
L 628 0 
L 628 4666 
z
" transform="scale(0.015625)"/>
      <path id="DejaVuSans-4f" d="M 2522 4238 
Q 1834 4238 1429 3725 
Q 1025 3213 1025 2328 
Q 1025 1447 1429 934 
Q 1834 422 2522 422 
Q 3209 422 3611 934 
Q 4013 1447 4013 2328 
Q 4013 3213 3611 3725 
Q 3209 4238 2522 4238 
z
M 2522 4750 
Q 3503 4750 4090 4092 
Q 4678 3434 4678 2328 
Q 4678 1225 4090 567 
Q 3503 -91 2522 -91 
Q 1538 -91 948 565 
Q 359 1222 359 2328 
Q 359 3434 948 4092 
Q 1538 4750 2522 4750 
z
" transform="scale(0.015625)"/>
      <path id="DejaVuSans-79" d="M 2059 -325 
Q 1816 -950 1584 -1140 
Q 1353 -1331 966 -1331 
L 506 -1331 
L 506 -850 
L 844 -850 
Q 1081 -850 1212 -737 
Q 1344 -625 1503 -206 
L 1606 56 
L 191 3500 
L 800 3500 
L 1894 763 
L 2988 3500 
L 3597 3500 
L 2059 -325 
z
" transform="scale(0.015625)"/>
      <path id="DejaVuSans-3a" d="M 750 794 
L 1409 794 
L 1409 0 
L 750 0 
L 750 794 
z
M 750 3309 
L 1409 3309 
L 1409 2516 
L 750 2516 
L 750 3309 
z
" transform="scale(0.015625)"/>
      <path id="DejaVuSans-59" d="M -13 4666 
L 666 4666 
L 1959 2747 
L 3244 4666 
L 3922 4666 
L 2272 2222 
L 2272 0 
L 1638 0 
L 1638 2222 
L -13 4666 
z
" transform="scale(0.015625)"/>
      <path id="DejaVuSans-3d" d="M 678 2906 
L 4684 2906 
L 4684 2381 
L 678 2381 
L 678 2906 
z
M 678 1631 
L 4684 1631 
L 4684 1100 
L 678 1100 
L 678 1631 
z
" transform="scale(0.015625)"/>
     </defs>
     <use xlink:href="#DejaVuSans-4b"/>
     <use xlink:href="#DejaVuSans-68" x="65.576172"/>
     <use xlink:href="#DejaVuSans-61" x="128.955078"/>
     <use xlink:href="#DejaVuSans-6c" x="190.234375"/>
     <use xlink:href="#DejaVuSans-69" x="218.017578"/>
     <use xlink:href="#DejaVuSans-64" x="245.800781"/>
     <use xlink:href="#DejaVuSans-20" x="309.277344"/>
     <use xlink:href="#DejaVuSans-44" x="341.064453"/>
     <use xlink:href="#DejaVuSans-61" x="418.066406"/>
     <use xlink:href="#DejaVuSans-74" x="479.345703"/>
     <use xlink:href="#DejaVuSans-61" x="518.554688"/>
     <use xlink:href="#DejaVuSans-20" x="579.833984"/>
     <use xlink:href="#DejaVuSans-4f" x="611.621094"/>
     <use xlink:href="#DejaVuSans-6e" x="690.332031"/>
     <use xlink:href="#DejaVuSans-6c" x="753.710938"/>
     <use xlink:href="#DejaVuSans-79" x="781.494141"/>
     <use xlink:href="#DejaVuSans-3a" x="833.423828"/>
     <use xlink:href="#DejaVuSans-20" x="867.115234"/>
     <use xlink:href="#DejaVuSans-41" x="898.902344"/>
     <use xlink:href="#DejaVuSans-73" x="967.310547"/>
     <use xlink:href="#DejaVuSans-65" x="1019.410156"/>
     <use xlink:href="#DejaVuSans-31" x="1080.933594"/>
     <use xlink:href="#DejaVuSans-37" x="1144.556641"/>
     <use xlink:href="#DejaVuSans-41" x="1208.179688"/>
     <use xlink:href="#DejaVuSans-20" x="1276.587891"/>
     <use xlink:href="#DejaVuSans-59" x="1308.375"/>
     <use xlink:href="#DejaVuSans-34" x="1369.458984"/>
     <use xlink:href="#DejaVuSans-34" x="1433.082031"/>
     <use xlink:href="#DejaVuSans-35" x="1496.705078"/>
     <use xlink:href="#DejaVuSans-44" x="1560.328125"/>
     <use xlink:href="#DejaVuSans-20" x="1637.330078"/>
     <use xlink:href="#DejaVuSans-28" x="1669.117188"/>
     <use xlink:href="#DejaVuSans-6e" x="1708.130859"/>
     <use xlink:href="#DejaVuSans-3d" x="1771.509766"/>
     <use xlink:href="#DejaVuSans-35" x="1855.298828"/>
     <use xlink:href="#DejaVuSans-31" x="1918.921875"/>
     <use xlink:href="#DejaVuSans-29" x="1982.544922"/>
    </g>
   </g>
  </g>
 </g>
 <defs>
  <clipPath id="p3d38010151">
   <rect x="54.2" y="25.44" width="323.6" height="292.6"/>
  </clipPath>
 </defs>
</svg>
